<svg width="54" height="23" viewBox="0 0 54 23" fill="none" xmlns="http://www.w3.org/2000/svg">
<path fill-rule="evenodd" clip-rule="evenodd" d="M42.9579 4.67962C42.0295 7.18539 41.1053 9.69188 40.2 12.2021C39.7472 13.4571 39.3028 14.7129 38.7815 15.9546C38.2752 17.1611 37.6534 18.4488 36.7471 19.5446C35.8017 20.6881 34.5776 21.581 32.8836 22.1527C32.2062 22.381 31.5122 22.5377 30.7841 22.6498C29.7509 22.8088 28.7131 22.8743 27.6632 22.9174C25.0633 23.0238 19.548 23.008 16.9488 23.008L18.5423 18.7183C19.7485 18.7183 20.9544 18.7214 22.1604 18.6971C23.3241 18.6736 24.6046 18.6283 25.7507 18.4315C27.0057 18.2158 27.9528 17.8458 28.7823 17.104C29.5379 16.4284 30.0459 15.5855 30.4621 14.7904C31.2224 13.3385 32.0008 11.2597 32.5496 9.76461C33.1702 8.07223 33.7668 6.37557 34.368 4.67962H42.9579ZM53.6953 4.67958L49.06 17.1586H40.4704L45.1055 4.67958H53.6953ZM25.3684 0H33.9583C33.0583 2.4359 32.1596 4.87198 31.2494 7.30591C30.615 9.00151 29.9851 10.6978 29.2964 12.3825C28.9961 13.117 28.6962 13.8492 28.3025 14.5623C27.9862 15.135 27.6326 15.6447 26.9788 16.0727C26.4904 16.3923 25.9579 16.591 25.3377 16.7327C24.5399 16.9151 23.7335 16.9819 22.9091 17.031C21.7236 17.1016 20.5378 17.1196 19.3502 17.1335C16.619 17.1654 11.6593 17.1609 8.92812 17.1524C7.94673 17.1492 6.96533 17.1449 5.98394 17.1319C5.27249 17.1226 4.56178 17.1098 3.85132 17.0775C3.37694 17.0557 2.90625 17.0269 2.43751 16.9641C2.11946 16.9217 1.81319 16.8647 1.51477 16.77C0.531902 16.458 0.0310191 15.8345 0.0018153 15.0751C-0.0151179 14.6405 0.088936 14.2266 0.208696 13.8063C0.378766 13.2109 0.590555 12.6237 0.80038 12.0358C1.20089 10.9126 1.93393 8.84018 2.50525 7.74924C2.95287 6.89432 3.54407 6.04349 4.66731 5.5023C5.29532 5.19979 5.95522 5.039 6.68287 4.93258C7.22228 4.85379 7.76439 4.81208 8.31141 4.78249C9.22753 4.73311 10.1444 4.7176 11.0622 4.70584C12.3666 4.68926 13.6709 4.6857 14.9753 4.68284L18.229 4.67964H21.4826L20.3238 7.79933C18.3899 7.79933 16.4566 7.79541 14.5227 7.80361C13.9583 7.80611 13.3946 7.80308 12.8306 7.82982C12.6304 7.83926 12.4348 7.84871 12.2412 7.89791C11.9864 7.96208 11.8605 8.07831 11.7486 8.24516C11.5849 8.48937 11.4905 8.74695 11.3862 9.00471C11.2269 9.39831 11.0794 9.79422 10.9317 10.1903C10.7042 10.8005 10.4767 11.4107 10.2607 12.0232C10.1809 12.2499 10.1027 12.4767 10.0354 12.7055C9.98805 12.866 9.94535 13.0259 9.92424 13.1895C9.90118 13.3685 9.89406 13.5835 10.0433 13.7496C10.1949 13.9182 10.4514 13.9574 10.6907 13.9826C10.9611 14.0113 11.232 14.0175 11.504 14.0234C11.9491 14.0332 12.3943 14.0346 12.8395 14.0362C14.0574 14.0405 15.2754 14.0407 16.4934 14.0352C17.0546 14.0327 17.6154 14.0298 18.1762 14.0134C18.5624 14.0022 18.9438 13.9926 19.3242 13.9257C19.6133 13.8749 19.8393 13.795 20.0349 13.6234C20.1672 13.5072 20.2536 13.3783 20.3326 13.2414C20.5289 12.902 20.6661 12.5506 20.8092 12.1995C21.3582 10.8524 21.8527 9.49493 22.358 8.13909L23.867 4.07035L25.3684 0Z" fill="white"/>
</svg>
