<svg width="371" height="47" viewBox="0 0 371 47" fill="none" xmlns="http://www.w3.org/2000/svg">
<path d="M339.328 41.1525L346.414 8.66016H370.617L369.013 16.0406H353.596L352.495 21.1697H365.254L363.77 27.9467H351.011L349.742 33.6792H365.326L363.722 41.1525H339.328Z" fill="#1E2025"/>
<path d="M193.586 41.1525L200.672 8.66016H209.649C212.985 8.66016 215.945 9.20943 218.531 10.308C221.116 11.4065 223.143 13.0079 224.611 15.1122C226.096 17.2165 226.838 19.7926 226.838 22.8407C226.838 25.4865 226.359 27.9235 225.401 30.1515C224.46 32.3795 223.127 34.3213 221.403 35.9769C219.68 37.617 217.629 38.8935 215.251 39.8064C212.889 40.7038 210.288 41.1525 207.447 41.1525H193.586ZM204.143 33.1918H208.021C209.506 33.1918 210.83 32.9598 211.995 32.4956C213.176 32.0159 214.174 31.3506 214.988 30.4996C215.818 29.6332 216.448 28.612 216.879 27.4361C217.326 26.2602 217.549 24.9759 217.549 23.5834C217.549 22.0516 217.206 20.7674 216.52 19.7308C215.834 18.6941 214.868 17.9127 213.623 17.3867C212.394 16.8606 210.95 16.5976 209.29 16.5976H207.734L204.143 33.1918Z" fill="#1E2025"/>
<path d="M160.773 41.1525L167.859 8.66016H180.236C182.822 8.66016 185.024 9.02376 186.843 9.75097C188.663 10.4627 190.051 11.4916 191.009 12.8377C191.982 14.1684 192.469 15.7543 192.469 17.5955C192.469 19.3285 192.078 20.9067 191.296 22.3301C190.514 23.7536 189.437 24.9682 188.064 25.9739C186.692 26.9642 185.12 27.6836 183.348 28.1323L189.309 41.1525H179.207L174.515 29.5713H172.097L169.583 41.1525H160.773ZM173.605 22.8175H178.656C180.077 22.8175 181.218 22.4694 182.079 21.7731C182.957 21.0614 183.396 20.0557 183.396 18.756C183.396 17.5955 182.981 16.7832 182.151 16.3191C181.321 15.8549 180.132 15.6228 178.584 15.6228H175.185L173.605 22.8175Z" fill="#1E2025"/>
<path d="M131.047 41.1525L138.133 8.66016H162.336L160.732 16.0406H145.315L144.214 21.1697H156.973L155.489 27.9467H142.729L141.46 33.6792H157.045L155.441 41.1525H131.047Z" fill="#1E2025"/>
<path d="M109.313 41.1525L114.7 16.4351H105.914L107.614 8.66016H134.043L132.343 16.4351H123.557L118.171 41.1525H109.313Z" fill="#1E2025"/>
<path d="M70.3672 41.1544L77.4532 8.66211H89.6862C92.2398 8.66211 94.4582 9.05666 96.3414 9.84576C98.2246 10.6349 99.6769 11.7566 100.698 13.211C101.736 14.6654 102.254 16.3906 102.254 18.3866C102.254 20.9086 101.64 23.0902 100.411 24.9315C99.1982 26.7572 97.5144 28.1652 95.3599 29.1555C93.2213 30.1302 90.7635 30.6176 87.9866 30.6176H81.475L79.1769 41.1544H70.3672ZM83.0072 23.5389H88.4893C90.0214 23.5389 91.2024 23.1521 92.0323 22.3785C92.8782 21.6049 93.3011 20.5682 93.3011 19.2685C93.3011 17.9998 92.8542 17.1333 91.9605 16.6691C91.0827 16.1895 89.8937 15.9497 88.3935 15.9497H84.6829L83.0072 23.5389Z" fill="#1E2025"/>
<path d="M49.0572 41.8477C46.5675 41.8477 44.3092 41.4764 42.2824 40.7337C40.2715 39.991 38.5319 38.9466 37.0636 37.6005C35.6113 36.2544 34.4941 34.6762 33.7121 32.8659C32.9301 31.0402 32.5391 29.0519 32.5391 26.9013C32.5391 24.2555 33.0498 21.7876 34.0712 19.4977C35.1086 17.2077 36.529 15.1963 38.3324 13.4634C40.1518 11.7305 42.2505 10.3843 44.6284 9.42504C47.0224 8.45028 49.5759 7.96289 52.289 7.96289C54.7947 7.96289 57.0609 8.3497 59.0878 9.12333C61.1147 9.88148 62.8543 10.9414 64.3066 12.3029C65.7749 13.6645 66.9 15.2582 67.682 17.0839C68.4641 18.9097 68.8551 20.8825 68.8551 23.0022C68.8551 25.6016 68.3364 28.0385 67.299 30.313C66.2776 32.5874 64.8572 34.5911 63.0378 36.324C61.2184 38.057 59.1117 39.4108 56.7178 40.3856C54.3239 41.3603 51.7703 41.8477 49.0572 41.8477ZM49.7993 33.8407C51.2517 33.8407 52.5683 33.5777 53.7493 33.0516C54.9303 32.5255 55.9597 31.7906 56.8375 30.8468C57.7153 29.9029 58.3856 28.8044 58.8484 27.5511C59.3272 26.2978 59.5666 24.9595 59.5666 23.536C59.5666 21.9887 59.2394 20.6504 58.5851 19.5209C57.9307 18.3759 57.0051 17.5017 55.8081 16.8983C54.6112 16.2794 53.2067 15.9699 51.5948 15.9699C50.1584 15.9699 48.8418 16.233 47.6448 16.759C46.4638 17.2851 45.4344 18.02 44.5566 18.9639C43.6788 19.8922 43.0006 20.983 42.5218 22.2363C42.0589 23.4896 41.8275 24.8357 41.8275 26.2746C41.8275 27.8219 42.1547 29.1603 42.809 30.2897C43.4793 31.4192 44.413 32.2934 45.61 32.9123C46.8069 33.5312 48.2034 33.8407 49.7993 33.8407Z" fill="#1E2025"/>
<path d="M16.71 41.8477C13.55 41.8477 10.7411 41.283 8.2833 40.1535C5.82553 39.024 3.88644 37.3916 2.46604 35.2564C1.0616 33.1212 0.359375 30.5605 0.359375 27.5743C0.359375 24.8202 0.846142 22.2595 1.81968 19.8922C2.80917 17.5094 4.18169 15.4284 5.93724 13.649C7.70876 11.8697 9.76754 10.4772 12.1136 9.47146C14.4597 8.46575 16.9892 7.96289 19.7024 7.96289C22.5272 7.96289 24.9371 8.34197 26.9321 9.10012C28.927 9.85828 30.7544 11.1038 32.4142 12.8367L26.8124 19.428C26.0463 18.4068 25.0169 17.6255 23.7242 17.0839C22.4315 16.5424 20.9632 16.2716 19.3193 16.2716C17.8351 16.2716 16.5025 16.5269 15.3215 17.0375C14.1405 17.5481 13.135 18.2676 12.3051 19.1959C11.4752 20.1088 10.8368 21.1764 10.39 22.3988C9.9431 23.6211 9.71966 24.9517 9.71966 26.3907C9.71966 27.8606 10.0468 29.1293 10.7012 30.1969C11.3555 31.2645 12.3051 32.0846 13.55 32.657C14.7948 33.2295 16.303 33.5158 18.0745 33.5158C19.3193 33.5158 20.6121 33.3456 21.9527 33.0052C23.3092 32.6648 24.6259 32.1078 25.9027 31.3341L28.3924 38.8074C26.8762 39.7357 25.1366 40.4784 23.1736 41.0354C21.2265 41.577 19.072 41.8477 16.71 41.8477Z" fill="#1E2025"/>
<path fill-rule="evenodd" clip-rule="evenodd" d="M257.591 12.4409C256.649 11.2682 255.35 10.3581 253.695 9.71056C251.876 8.98335 249.673 8.61975 247.088 8.61975H234.711L227.625 41.112H236.435L238.948 29.5309H241.366L246.058 41.112H256.161L250.2 28.092C251.971 27.6432 253.543 26.9238 254.916 25.9335C255.102 25.7971 255.283 25.6568 255.458 25.5127C255.372 24.664 255.328 23.8033 255.328 22.9326C255.328 19.2007 256.136 15.6517 257.591 12.4409ZM245.508 22.7771H240.456L242.036 15.5824H245.436C246.984 15.5824 248.173 15.8145 249.003 16.2786C249.833 16.7428 250.248 17.5552 250.248 18.7156C250.248 20.0153 249.809 21.021 248.931 21.7327C248.069 22.429 246.928 22.7771 245.508 22.7771Z" fill="#1E2025"/>
<path d="M304.923 41.112C309.628 36.4111 312.524 29.9998 312.524 22.9326C312.524 19.5989 311.88 16.411 310.705 13.4798L311.765 8.61975H320.407L329.097 27.6278L333.286 8.61975H341.809L334.723 41.112H326.128L317.438 21.8256L313.201 41.112H304.923Z" fill="#1E2025"/>
<path d="M283.619 27.982C286.218 27.982 288.325 26.3269 288.325 24.2853C288.325 22.2437 286.218 20.5886 283.619 20.5886C281.02 20.5886 278.914 22.2437 278.914 24.2853C278.914 26.3269 281.02 27.982 283.619 27.982Z" fill="#1E2025"/>
<path d="M281.178 28.901L275.609 33.4391L276.278 46.5901L280.672 46.1607L284.731 29.2211C283.745 29.3933 281.961 29.1343 281.178 28.901Z" fill="#1E2025"/>
<path d="M289.937 22.3911L297.661 22.5195L308.157 12.9507L304.908 10.3145L287.905 19.8601C288.746 20.329 289.578 21.7571 289.937 22.3911Z" fill="#1E2025"/>
<path d="M280.518 19.5493L279.995 13.0168L267.65 5.11957L265.412 8.03103L278.114 21.5549C278.592 20.8043 279.804 19.9075 280.518 19.5493Z" fill="#1E2025"/>
<path d="M282.318 3.75883C283.548 3.66238 284.804 3.7386 286.031 3.98423C289.275 4.65793 292.519 7.55819 293.512 9.14143C294.504 10.7247 294.74 11.3178 294.818 11.5402L295.086 12.351L300.604 9.19159L300.256 8.56162C299.811 7.82071 299.283 7.11174 298.678 6.44446C297.676 5.33007 296.461 4.3493 295.086 3.54328C293.732 2.76003 292.258 2.13637 290.709 1.69236C289.793 1.43666 288.854 1.25555 287.905 1.1518C285.663 0.891927 283.534 1.11646 281.435 1.62338C279.994 1.9991 278.661 2.57979 277.493 3.33982C276.321 4.07509 275.412 5.0682 274.534 6.01264C274.526 6.02091 274.542 6.00365 274.534 6.01264C274.47 6.08411 274.459 6.17655 274.459 6.26576C274.459 6.35497 274.513 6.47272 274.637 6.56966C274.762 6.66661 274.96 6.66665 275.072 6.66661C275.184 6.66657 275.289 6.63194 275.366 6.56966C275.338 6.59053 275.395 6.54622 275.366 6.56966C276.333 5.81148 277.382 5.05003 278.595 4.56649C279.761 4.13233 281.018 3.8596 282.318 3.75883Z" fill="#1FB59C"/>
<path d="M273.594 38.7592C273.555 38.7487 273.518 38.7366 273.482 38.7246C272.184 38.3463 270.965 37.7556 269.864 36.9711C268.84 36.1961 267.956 35.2312 267.247 34.1137C266.574 33.0563 266.084 31.8617 265.798 30.5807C265.068 27.1767 266.103 24.215 268.465 21.3443C268.665 21.1005 269.65 20.0786 269.865 19.8601L264.428 14.5797C263.798 15.4767 263.242 16.4286 262.767 17.4223C261.972 19.0751 261.424 20.8326 261.147 22.6211C260.886 24.3743 260.86 26.1319 261.07 27.8374C261.202 28.8421 261.429 29.8184 261.747 30.7516C262.483 32.967 263.712 34.7586 265.247 36.3356C266.33 37.3989 267.596 38.2288 268.988 38.7886C270.354 39.3692 271.849 39.5341 273.316 39.7077C273.329 39.7098 273.342 39.7112 273.356 39.7119C273.466 39.7228 273.58 39.6873 273.676 39.6125C273.771 39.5377 273.841 39.4292 273.871 39.3086C273.901 39.1881 273.89 39.0644 273.838 38.9625C273.787 38.8606 273.7 38.788 273.594 38.7592Z" fill="#1FB59C"/>
<path d="M304.013 20.496C305.321 22.6968 305.815 25.2225 305.436 27.7919C305.057 30.3613 303.821 32.873 301.869 35.0451C299.916 37.2172 297.321 38.9652 294.377 40.0926C291.433 41.22 288.251 41.6837 285.193 41.4303L287.023 34.2565C288.49 34.378 290.677 34.5704 292.143 34.2565C293.61 33.9425 296.239 33.0742 298.034 31.8285C299.829 30.5829 301.869 28.3943 303.004 25.4228C304.14 22.4513 303.039 21.2359 303.277 20.6827C303.514 20.1295 304.013 20.496 304.013 20.496Z" fill="#1FB59C"/>
</svg>
