<svg width="1285" height="162" viewBox="0 0 1285 162" fill="none" xmlns="http://www.w3.org/2000/svg">
<path d="M1175.83 142.752L1200.41 30.041H1284.36L1278.8 55.6424H1225.32L1221.5 73.4346H1265.76L1260.61 96.9428H1216.35L1211.95 116.828H1266.01L1260.45 142.752H1175.83Z" fill="#1E2025"/>
<path d="M670.273 142.752L694.854 30.041H725.994C737.565 30.041 747.834 31.9464 756.803 35.757C765.771 39.5677 772.802 45.1228 777.895 52.4221C783.044 59.7215 785.618 68.6578 785.618 79.2311C785.618 88.409 783.957 96.8623 780.636 104.591C777.369 112.32 772.747 119.056 766.768 124.798C760.789 130.488 753.675 134.915 745.426 138.082C737.233 141.195 728.209 142.752 718.355 142.752H670.273ZM706.895 115.137H720.348C725.496 115.137 730.091 114.332 734.132 112.722C738.229 111.058 741.689 108.751 744.513 105.799C747.391 102.793 749.578 99.2507 751.073 95.1716C752.623 91.0926 753.398 86.6378 753.398 81.8074C753.398 76.4939 752.208 72.0391 749.827 68.4431C747.447 64.8471 744.097 62.1367 739.779 60.3119C735.516 58.487 730.506 57.5746 724.749 57.5746H719.351L706.895 115.137Z" fill="#1E2025"/>
<path d="M556.453 142.752L581.033 30.041H623.966C632.934 30.041 640.574 31.3023 646.885 33.8249C653.197 36.2938 658.013 39.8629 661.335 44.5324C664.712 49.1481 666.4 54.6495 666.4 61.0364C666.4 67.0476 665.044 72.5222 662.331 77.46C659.619 82.3978 655.882 86.611 651.121 90.0996C646.36 93.5346 640.906 96.0304 634.761 97.5868L655.439 142.752H620.395L604.119 102.578H595.732L587.012 142.752H556.453ZM600.963 79.1506H618.485C623.412 79.1506 627.371 77.943 630.36 75.5278C633.405 73.0589 634.927 69.5702 634.927 65.0618C634.927 61.0364 633.488 58.2187 630.609 56.6085C627.731 54.9984 623.606 54.1933 618.236 54.1933H606.444L600.963 79.1506Z" fill="#1E2025"/>
<path d="M453.328 142.752L477.908 30.041H561.864L556.3 55.6424H502.821L499.001 73.4346H543.262L538.114 96.9428H493.852L489.451 116.828H543.511L537.948 142.752H453.328Z" fill="#1E2025"/>
<path d="M377.94 142.752L396.625 57.011H366.148L372.044 30.041H463.722L457.826 57.011H427.35L408.666 142.752H377.94Z" fill="#1E2025"/>
<path d="M242.844 142.757L267.424 30.0469H309.858C318.716 30.0469 326.411 31.4155 332.944 34.1528C339.477 36.89 344.514 40.7812 348.058 45.8263C351.656 50.8715 353.455 56.8559 353.455 63.7795C353.455 72.528 351.324 80.0957 347.061 86.4827C342.854 92.8159 337.013 97.7 329.539 101.135C322.121 104.516 313.595 106.207 303.962 106.207H281.375L273.403 142.757H242.844ZM286.69 81.6522H305.706C311.021 81.6522 315.118 80.3104 317.996 77.6268C320.931 74.9432 322.398 71.3472 322.398 66.8388C322.398 62.4377 320.848 59.4321 317.747 57.822C314.702 56.1582 310.578 55.3262 305.374 55.3262H292.503L286.69 81.6522Z" fill="#1E2025"/>
<path d="M168.924 145.162C160.287 145.162 152.454 143.874 145.423 141.298C138.447 138.721 132.413 135.099 127.32 130.429C122.282 125.76 118.407 120.285 115.694 114.006C112.981 107.672 111.625 100.776 111.625 93.3152C111.625 84.1373 113.397 75.5767 116.94 67.6333C120.538 59.6899 125.465 52.7126 131.721 46.7014C138.032 40.6901 145.312 36.0207 153.561 32.6931C161.865 29.3117 170.723 27.6211 180.134 27.6211C188.826 27.6211 196.687 28.9629 203.718 31.6465C210.749 34.2764 216.783 37.9529 221.821 42.676C226.915 47.3991 230.817 52.9273 233.53 59.2605C236.243 65.5938 237.599 72.4369 237.599 79.7899C237.599 88.8068 235.8 97.26 232.202 105.15C228.658 113.04 223.731 119.99 217.42 126.001C211.109 132.012 203.801 136.709 195.497 140.09C187.193 143.471 178.335 145.162 168.924 145.162ZM171.498 117.387C176.536 117.387 181.103 116.474 185.2 114.65C189.297 112.825 192.867 110.275 195.912 107.001C198.957 103.727 201.282 99.9168 202.888 95.5694C204.549 91.222 205.379 86.5794 205.379 81.6416C205.379 76.2744 204.244 71.6318 201.974 67.7138C199.705 63.7421 196.494 60.7097 192.342 58.6165C188.189 56.4696 183.318 55.3962 177.726 55.3962C172.744 55.3962 168.176 56.3086 164.024 58.1334C159.928 59.9583 156.357 62.5077 153.312 65.7816C150.267 69.0019 147.914 72.7858 146.253 77.1332C144.648 81.4806 143.845 86.15 143.845 91.1415C143.845 96.5086 144.98 101.151 147.25 105.069C149.575 108.987 152.814 112.02 156.966 114.167C161.118 116.313 165.962 117.387 171.498 117.387Z" fill="#1E2025"/>
<path d="M56.7175 145.162C45.756 145.162 36.0124 143.203 27.4868 139.285C18.9612 135.367 12.2348 129.705 7.30767 122.298C2.43589 114.891 0 106.009 0 95.6499C0 86.0963 1.68851 77.2137 5.06554 69.0019C8.49793 60.7365 13.259 53.5177 19.3487 47.3454C25.4938 41.1732 32.6354 36.3427 40.7735 32.8541C48.9116 29.3654 57.6863 27.6211 67.0977 27.6211C76.8966 27.6211 85.2561 28.936 92.1763 31.566C99.0964 34.1959 105.435 38.5164 111.193 44.5277L91.7611 67.3918C89.1037 63.8494 85.5329 61.139 81.0487 59.2605C76.5644 57.382 71.4712 56.4428 65.769 56.4428C60.6204 56.4428 55.9978 57.3283 51.9011 59.0995C47.8043 60.8707 44.3166 63.3664 41.4378 66.5867C38.559 69.7533 36.3446 73.4567 34.7945 77.6967C33.2444 81.9368 32.4693 86.5526 32.4693 91.544C32.4693 96.6428 33.6042 101.044 35.874 104.747C38.1438 108.451 41.4378 111.295 45.756 113.281C50.0741 115.267 55.3058 116.26 61.4509 116.26C65.769 116.26 70.2533 115.669 74.9036 114.489C79.6093 113.308 84.1766 111.376 88.6055 108.692L97.2418 134.616C91.9825 137.836 85.9482 140.412 79.1387 142.344C72.3847 144.223 64.9109 145.162 56.7175 145.162Z" fill="#1E2025"/>
<path fill-rule="evenodd" clip-rule="evenodd" d="M892.29 43.1545C889.023 39.0868 884.518 35.9298 878.776 33.6836C872.465 31.161 864.825 29.8998 855.857 29.8998H812.924L788.344 142.61H818.903L827.622 102.437H836.01L852.286 142.61H887.329L866.652 97.4456C872.797 95.8891 878.25 93.3934 883.011 89.9584C883.657 89.4852 884.284 88.9986 884.892 88.4987C884.594 85.5545 884.442 82.5689 884.442 79.5487C884.442 66.6035 887.243 54.2924 892.29 43.1545ZM850.376 79.0094H832.854L838.335 54.052H850.127C855.497 54.052 859.621 54.8571 862.5 56.4672C865.379 58.0774 866.818 60.8952 866.818 64.9206C866.818 69.429 865.296 72.9177 862.251 75.3866C859.261 77.8018 855.303 79.0094 850.376 79.0094Z" fill="#1E2025"/>
<path d="M1056.48 142.61C1072.8 126.303 1082.84 104.064 1082.84 79.5487C1082.84 67.9845 1080.61 56.9264 1076.53 46.7586L1080.21 29.8998H1110.19L1140.33 95.8354L1154.87 29.8998H1184.43L1159.85 142.61H1130.04L1099.89 75.7086L1085.19 142.61H1056.48Z" fill="#1E2025"/>
<path d="M982.579 97.064C991.594 97.064 998.902 91.3229 998.902 84.2409C998.902 77.1589 991.594 71.4178 982.579 71.4178C973.564 71.4178 966.256 77.1589 966.256 84.2409C966.256 91.3229 973.564 97.064 982.579 97.064Z" fill="#1E2025"/>
<path d="M974.11 100.252L954.793 115.994L957.113 161.612L972.355 160.123L986.435 101.362C983.016 101.96 976.825 101.061 974.11 100.252Z" fill="#1E2025"/>
<path d="M1004.49 77.6703L1031.29 78.1157L1067.7 44.9232L1056.43 35.7784L997.446 68.8906C1000.36 70.5172 1003.25 75.471 1004.49 77.6703Z" fill="#1E2025"/>
<path d="M971.82 67.8125L970.008 45.1526L927.185 17.7582L919.42 27.8576L963.481 74.7698C965.138 72.166 969.343 69.0553 971.82 67.8125Z" fill="#1E2025"/>
<path d="M978.065 13.0381C982.333 12.7035 986.688 12.9679 990.943 13.8199C1002.2 16.1569 1013.45 26.2174 1016.89 31.7094C1020.34 37.2014 1021.15 39.2589 1021.42 40.0303L1022.35 42.8429L1041.5 31.8834L1040.29 29.6981C1038.74 27.128 1036.91 24.6687 1034.81 22.3541C1031.34 18.4884 1027.13 15.0863 1022.35 12.2903C1017.66 9.57338 1012.54 7.41002 1007.17 5.86981C1003.99 4.98283 1000.74 4.35461 997.446 3.99469C989.67 3.09325 982.284 3.87212 975.001 5.63052C970.004 6.93385 965.379 8.94816 961.329 11.5846C957.262 14.1351 954.11 17.58 951.065 20.8561C951.036 20.8848 951.09 20.825 951.065 20.8561C950.842 21.1041 950.805 21.4247 950.803 21.7342C950.802 22.0436 950.991 22.4521 951.422 22.7884C951.853 23.1247 952.543 23.1248 952.931 23.1247C953.319 23.1245 953.683 23.0044 953.949 22.7884C953.851 22.8607 954.048 22.7071 953.949 22.7884C957.304 20.1583 960.942 17.517 965.149 15.8397C969.195 14.3337 973.557 13.3876 978.065 13.0381Z" fill="#1FB59C"/>
<path d="M947.804 134.448C947.667 134.412 947.54 134.37 947.413 134.328C942.912 133.016 938.685 130.967 934.866 128.246C931.313 125.558 928.247 122.21 925.785 118.334C923.45 114.666 921.751 110.522 920.758 106.079C918.228 94.2707 921.818 83.9972 930.009 74.0391C930.705 73.1933 934.123 69.6487 934.868 68.8906L916.008 50.5738C913.821 53.6853 911.892 56.9873 910.246 60.4342C907.487 66.1676 905.587 72.2641 904.627 78.4682C903.72 84.5496 903.63 90.6464 904.358 96.5627C904.817 100.048 905.604 103.434 906.708 106.671C909.26 114.356 913.525 120.571 918.847 126.042C922.607 129.73 926.997 132.609 931.825 134.551C936.563 136.564 941.751 137.137 946.838 137.739C946.884 137.746 946.93 137.751 946.977 137.753C947.358 137.791 947.754 137.668 948.086 137.409C948.417 137.149 948.659 136.773 948.764 136.354C948.869 135.936 948.828 135.507 948.65 135.154C948.472 134.8 948.17 134.548 947.804 134.448Z" fill="#1FB59C"/>
<path d="M1053.32 71.0965C1057.86 78.7306 1059.57 87.4919 1058.26 96.4048C1056.94 105.318 1052.66 114.03 1045.88 121.565C1039.11 129.1 1030.11 135.163 1019.9 139.074C1009.68 142.984 998.645 144.593 988.037 143.714L994.384 118.829C999.473 119.251 1007.06 119.918 1012.15 118.829C1017.23 117.74 1026.35 114.728 1032.58 110.407C1038.81 106.086 1045.88 98.4943 1049.82 88.1867C1053.76 77.879 1049.94 73.6633 1050.77 71.7443C1051.59 69.8253 1053.32 71.0965 1053.32 71.0965Z" fill="#1FB59C"/>
</svg>
