<svg width="266" height="33" viewBox="0 0 266 33" fill="none" xmlns="http://www.w3.org/2000/svg">
<path d="M242.625 29.0224L247.69 5.64844H264.991L263.844 10.9577H252.824L252.037 14.6474H261.158L260.097 19.5225H250.976L250.069 23.6464H261.209L260.062 29.0224H242.625Z" fill="#1FB59C"/>
<path d="M138.445 29.0224L143.511 5.64844H149.928C152.312 5.64844 154.428 6.04357 156.276 6.83383C158.124 7.62409 159.573 8.77609 160.623 10.2898C161.684 11.8036 162.214 13.6568 162.214 15.8495C162.214 17.7528 161.872 19.5058 161.188 21.1086C160.514 22.7114 159.562 24.1083 158.33 25.2992C157.098 26.479 155.632 27.3973 153.932 28.054C152.244 28.6996 150.384 29.0224 148.353 29.0224H138.445ZM145.992 23.2957H148.764C149.825 23.2957 150.772 23.1288 151.605 22.7949C152.449 22.4498 153.162 21.9712 153.744 21.359C154.337 20.7357 154.788 20.0011 155.096 19.1552C155.415 18.3093 155.575 17.3855 155.575 16.3837C155.575 15.2818 155.329 14.358 154.839 13.6123C154.348 12.8665 153.658 12.3044 152.768 11.926C151.89 11.5476 150.857 11.3584 149.671 11.3584H148.559L145.992 23.2957Z" fill="#1FB59C"/>
<path d="M114.992 29.0224L120.057 5.64844H128.904C130.753 5.64844 132.327 5.91 133.627 6.43313C134.928 6.94513 135.921 7.68531 136.605 8.65366C137.301 9.61087 137.649 10.7517 137.649 12.0763C137.649 13.3229 137.369 14.4582 136.81 15.4822C136.251 16.5062 135.481 17.3799 134.5 18.1034C133.519 18.8157 132.395 19.3333 131.129 19.6561L135.39 29.0224H128.169L124.815 20.6912H123.086L121.29 29.0224H114.992ZM124.164 15.8328H127.775C128.79 15.8328 129.606 15.5824 130.222 15.0815C130.85 14.5695 131.163 13.846 131.163 12.911C131.163 12.0763 130.867 11.4919 130.273 11.158C129.68 10.8241 128.83 10.6571 127.724 10.6571H125.294L124.164 15.8328Z" fill="#1FB59C"/>
<path d="M93.7422 29.0224L98.8074 5.64844H116.108L114.961 10.9577H103.941L103.154 14.6474H112.275L111.214 19.5225H102.093L101.186 23.6464H112.326L111.18 29.0224H93.7422Z" fill="#1FB59C"/>
<path d="M78.2034 29.0224L82.0537 11.2415H75.7734L76.9884 5.64844H95.8804L94.6654 11.2415H88.3852L84.5349 29.0224H78.2034Z" fill="#1FB59C"/>
<path d="M50.3672 29.0243L55.4324 5.65039H64.1768C66.0021 5.65039 67.5879 5.93422 68.934 6.50187C70.2802 7.06952 71.3183 7.87648 72.0485 8.92274C72.79 9.969 73.1608 11.21 73.1608 12.6459C73.1608 14.4601 72.7216 16.0295 71.8431 17.354C70.9761 18.6674 69.7725 19.6803 68.2324 20.3927C66.7037 21.0939 64.9469 21.4445 62.9618 21.4445H58.3073L56.6645 29.0243H50.3672ZM59.4025 16.3523H63.3212C64.4164 16.3523 65.2606 16.074 65.8538 15.5175C66.4585 14.961 66.7608 14.2153 66.7608 13.2803C66.7608 12.3676 66.4413 11.7443 65.8025 11.4104C65.175 11.0653 64.3251 10.8928 63.2527 10.8928H60.6003L59.4025 16.3523Z" fill="#1FB59C"/>
<path d="M35.1356 29.5241C33.3559 29.5241 31.7417 29.257 30.2928 28.7227C28.8554 28.1884 27.6119 27.4371 26.5623 26.4688C25.5242 25.5004 24.7256 24.3651 24.1666 23.0629C23.6076 21.7495 23.3281 20.3192 23.3281 18.7721C23.3281 16.8688 23.6932 15.0935 24.4233 13.4462C25.1648 11.7989 26.1802 10.3519 27.4693 9.10531C28.7698 7.8587 30.27 6.89035 31.9698 6.20026C33.6811 5.49905 35.5064 5.14844 37.4458 5.14844C39.2369 5.14844 40.8568 5.4267 42.3057 5.98322C43.7545 6.52861 44.998 7.29105 46.0361 8.27053C47.0857 9.25 47.89 10.3964 48.449 11.7098C49.008 13.0232 49.2875 14.4424 49.2875 15.9672C49.2875 17.8371 48.9167 19.5902 48.1752 21.2264C47.4451 22.8625 46.4297 24.3039 45.1292 25.5505C43.8287 26.7971 42.3228 27.771 40.6115 28.4723C38.9003 29.1735 37.075 29.5241 35.1356 29.5241ZM35.6661 23.7641C36.7042 23.7641 37.6454 23.5749 38.4896 23.1964C39.3338 22.818 40.0697 22.2893 40.6971 21.6103C41.3246 20.9314 41.8037 20.1411 42.1345 19.2396C42.4768 18.338 42.6479 17.3752 42.6479 16.3512C42.6479 15.2382 42.414 14.2754 41.9463 13.4629C41.4786 12.6392 40.8169 12.0104 39.9613 11.5763C39.1057 11.131 38.1017 10.9084 36.9495 10.9084C35.9228 10.9084 34.9816 11.0977 34.126 11.4761C33.2818 11.8545 32.5459 12.3832 31.9185 13.0622C31.291 13.73 30.8062 14.5147 30.464 15.4163C30.1331 16.3178 29.9677 17.2862 29.9677 18.3213C29.9677 19.4344 30.2016 20.3971 30.6693 21.2097C31.1484 22.0222 31.8158 22.651 32.6714 23.0963C33.5271 23.5415 34.5253 23.7641 35.6661 23.7641Z" fill="#1FB59C"/>
<path d="M12.0158 29.5241C9.757 29.5241 7.74916 29.1178 5.9923 28.3053C4.23543 27.4928 2.84934 26.3185 1.83401 24.7825C0.830086 23.2465 0.328125 21.4044 0.328125 19.2563C0.328125 17.275 0.676075 15.433 1.37198 13.73C2.07928 12.0159 3.06039 10.5189 4.31529 9.23887C5.5816 7.95887 7.05326 6.95713 8.73026 6.23366C10.4073 5.51018 12.2155 5.14844 14.1549 5.14844C16.1741 5.14844 17.8968 5.42113 19.3228 5.96652C20.7488 6.51192 22.055 7.40792 23.2415 8.65453L19.2372 13.3961C18.6896 12.6615 17.9538 12.0994 17.0297 11.7098C16.1057 11.3203 15.0561 11.1255 13.8811 11.1255C12.8201 11.1255 11.8675 11.3091 11.0233 11.6764C10.1791 12.0437 9.46039 12.5613 8.86716 13.2291C8.27394 13.8858 7.81761 14.6538 7.49818 15.5331C7.17875 16.4124 7.01903 17.3697 7.01903 18.4048C7.01903 19.4622 7.2529 20.3749 7.72064 21.1429C8.18837 21.9109 8.86716 22.5008 9.757 22.9126C10.6468 23.3244 11.7249 23.5304 12.9912 23.5304C13.8811 23.5304 14.8051 23.4079 15.7634 23.163C16.7331 22.9182 17.6743 22.5175 18.5869 21.961L20.3666 27.337C19.2828 28.0048 18.0394 28.539 16.6361 28.9397C15.2443 29.3293 13.7042 29.5241 12.0158 29.5241Z" fill="#1FB59C"/>
<path fill-rule="evenodd" clip-rule="evenodd" d="M184.201 8.36724C183.528 7.52367 182.6 6.86897 181.417 6.40315C180.116 5.88002 178.542 5.61846 176.694 5.61846H167.846L162.781 28.9923H169.079L170.875 20.6613H172.604L175.958 28.9923H183.179L178.918 19.6261C180.184 19.3033 181.308 18.7858 182.289 18.0734C182.422 17.9753 182.552 17.8744 182.677 17.7707C182.615 17.1601 182.584 16.541 182.584 15.9147C182.584 13.2301 183.161 10.677 184.201 8.36724ZM175.564 15.8028H171.953L173.083 10.6272H175.513C176.619 10.6272 177.469 10.7941 178.063 11.128C178.656 11.4619 178.952 12.0463 178.952 12.8811C178.952 13.816 178.639 14.5395 178.011 15.0515C177.395 15.5524 176.579 15.8028 175.564 15.8028Z" fill="#1FB59C"/>
<path d="M218.036 28.9923C221.398 25.6106 223.469 20.9986 223.469 15.9147C223.469 13.5165 223.008 11.2232 222.168 9.11464L222.926 5.61846H229.103L235.315 19.2922L238.31 5.61846H244.402L239.337 28.9923H233.193L226.982 15.1183L223.953 28.9923H218.036Z" fill="#1FB59C"/>
<path d="M202.807 19.547C204.665 19.547 206.171 18.3564 206.171 16.8877C206.171 15.4191 204.665 14.2285 202.807 14.2285C200.949 14.2285 199.443 15.4191 199.443 16.8877C199.443 18.3564 200.949 19.547 202.807 19.547Z" fill="#1E2025"/>
<path d="M201.062 20.2082L197.081 23.4727L197.559 32.9331L200.7 32.6242L203.602 20.4384C202.897 20.5623 201.621 20.376 201.062 20.2082Z" fill="#1E2025"/>
<path d="M207.323 15.5251L212.844 15.6175L220.347 8.73402L218.025 6.83758L205.871 13.7044C206.472 14.0417 207.066 15.069 207.323 15.5251Z" fill="#1E2025"/>
<path d="M200.59 13.4808L200.217 8.78159L191.392 3.10054L189.792 5.19496L198.872 14.9236C199.213 14.3836 200.08 13.7385 200.59 13.4808Z" fill="#1E2025"/>
<path d="M201.877 2.12167C202.756 2.05229 203.654 2.10712 204.531 2.28382C206.85 2.76845 209.169 4.85481 209.878 5.99374C210.588 7.13267 210.756 7.55936 210.812 7.71933L211.003 8.3026L214.948 6.02982L214.699 5.57664C214.381 5.04366 214.003 4.53365 213.571 4.05363C212.855 3.25197 211.987 2.54644 211.003 1.96661C210.036 1.40317 208.982 0.954528 207.875 0.635118C207.22 0.451177 206.549 0.320896 205.871 0.246256C204.268 0.0593143 202.746 0.220837 201.245 0.585495C200.216 0.855779 199.263 1.27351 198.428 1.82025C197.59 2.34918 196.941 3.06359 196.313 3.74299C196.307 3.74894 196.318 3.73652 196.313 3.74299C196.267 3.7944 196.259 3.8609 196.259 3.92508C196.259 3.98925 196.298 4.07395 196.387 4.14369C196.475 4.21343 196.618 4.21346 196.697 4.21343C196.777 4.21341 196.852 4.1885 196.907 4.14369C196.887 4.1587 196.928 4.12683 196.907 4.14369C197.599 3.59828 198.348 3.05052 199.215 2.70268C200.049 2.39036 200.948 2.19416 201.877 2.12167Z" fill="#1FB59C"/>
<path d="M195.641 27.2998C195.613 27.2923 195.587 27.2836 195.561 27.2749C194.633 27.0028 193.762 26.5778 192.975 26.0135C192.243 25.456 191.611 24.7619 191.104 23.958C190.622 23.1973 190.272 22.338 190.068 21.4165C189.546 18.9677 190.286 16.8372 191.974 14.7721C192.118 14.5967 192.822 13.8616 192.975 13.7044L189.089 9.90584C188.638 10.5511 188.241 11.2359 187.902 11.9507C187.333 13.1397 186.941 14.404 186.744 15.6906C186.557 16.9518 186.538 18.2161 186.688 19.443C186.783 20.1657 186.945 20.8681 187.172 21.5394C187.698 23.1331 188.577 24.4219 189.674 25.5564C190.449 26.3213 191.353 26.9183 192.348 27.321C193.325 27.7386 194.394 27.8573 195.442 27.9821C195.451 27.9836 195.461 27.9847 195.471 27.9851C195.549 27.993 195.631 27.9675 195.699 27.9137C195.767 27.8599 195.817 27.7818 195.839 27.695C195.86 27.6083 195.852 27.5194 195.815 27.446C195.779 27.3727 195.716 27.3205 195.641 27.2998Z" fill="#1FB59C"/>
<path d="M217.385 14.1618C218.32 15.745 218.673 17.5619 218.402 19.4103C218.131 21.2586 217.248 23.0654 215.852 24.628C214.456 26.1906 212.601 27.448 210.497 28.259C208.392 29.07 206.118 29.4036 203.932 29.2213L205.24 24.0607C206.288 24.1481 207.852 24.2865 208.9 24.0607C209.948 23.8349 211.828 23.2102 213.111 22.3141C214.394 21.418 215.852 19.8436 216.664 17.706C217.476 15.5684 216.689 14.6941 216.858 14.2962C217.028 13.8982 217.385 14.1618 217.385 14.1618Z" fill="#1FB59C"/>
</svg>
