<svg width="16" height="16" viewBox="0 0 16 16" fill="none" xmlns="http://www.w3.org/2000/svg">
<g clip-path="url(#clip0_2055_75687)">
<path fill-rule="evenodd" clip-rule="evenodd" d="M3.78809 2.56463L3.98832 2.5625L6.07101 2.56335C6.10263 2.56363 6.12234 2.56406 6.14191 2.56463C6.24515 2.56732 6.34937 2.57328 6.45147 2.59157C6.55375 2.60883 6.65291 2.64113 6.74572 2.68743C6.83818 2.73394 6.92298 2.79464 6.99629 2.86738C7.06964 2.93978 7.13104 3.02335 7.17823 3.11497C7.22644 3.20814 7.25664 3.30357 7.27522 3.40596C7.29366 3.50692 7.29975 3.60987 7.30245 3.71197C7.30387 3.75877 7.30443 3.80557 7.30457 3.8525L7.30486 3.93603V5.78474C7.30486 5.84033 7.30486 5.89606 7.30457 5.95179C7.30429 5.99858 7.30387 6.04538 7.30245 6.09218C7.29961 6.19428 7.29366 6.29737 7.27522 6.39819C7.25772 6.49952 7.22502 6.59762 7.17823 6.68918C7.13102 6.78083 7.06961 6.86444 6.99629 6.93691C6.92269 7.00963 6.83814 7.07035 6.74572 7.11686C6.65291 7.16317 6.55375 7.19547 6.45147 7.21272C6.34937 7.23087 6.24515 7.23683 6.14191 7.23966L5.83079 7.24208L3.85885 7.24094C3.83526 7.24068 3.81167 7.24021 3.78809 7.23952C3.68485 7.23697 3.58063 7.23087 3.47853 7.21272C3.3763 7.19546 3.27719 7.16316 3.18442 7.11686C2.99873 7.02341 2.84728 6.87374 2.75163 6.68918C2.7049 6.59759 2.67221 6.4995 2.65464 6.39819C2.6362 6.29737 2.63025 6.19428 2.62755 6.09232C2.62613 6.04552 2.62571 5.99858 2.62543 5.95179L2.625 5.86798V4.01955C2.625 3.96396 2.625 3.90823 2.62543 3.85264C2.62571 3.80585 2.62628 3.75905 2.62755 3.71212C2.63039 3.61002 2.63634 3.50707 2.65464 3.4061C2.6722 3.30479 2.70489 3.2067 2.75163 3.11512C2.84714 2.9305 2.99857 2.7808 3.18428 2.68743C3.27709 2.64113 3.37625 2.60882 3.47853 2.59157C3.58063 2.57342 3.68485 2.56746 3.78809 2.56463Z" fill="white"/>
<path d="M-0.5 0.0078125H15.5V16.0078H-0.5V0.0078125Z" fill="#19AA1E"/>
<path fill-rule="evenodd" clip-rule="evenodd" d="M-0.5 0.0078125H15.5V5.25727L-0.5 2.75762V0.0078125Z" fill="#FFB919"/>
<path fill-rule="evenodd" clip-rule="evenodd" d="M-0.5 14.2575L15.5 11.7578V16.0076H-0.5V14.2575Z" fill="#82D714"/>
<path fill-rule="evenodd" clip-rule="evenodd" d="M-0.5 2.44141L5.08495 3.31405C5.78016 2.87385 6.60723 2.63242 7.49976 2.63242C8.73601 2.63242 9.84718 3.09541 10.6558 3.90794C10.7576 4.01072 10.8536 4.11786 10.9443 4.22937L15.5 4.94106V5.57373L11.4068 4.93379C11.7131 5.51944 11.8736 6.17037 11.8746 6.83131C11.8746 7.68845 11.6831 8.54316 11.2866 9.40126L11.2749 9.42744L11.1062 9.78813H10.7087C9.88645 9.78813 9.34153 10.0339 8.98471 10.4698C8.70498 10.8116 8.54306 11.2731 8.48876 11.7763L8.48682 11.7918L8.47906 11.8723L8.47567 11.9072L8.46888 11.9756C8.44804 12.2005 8.43446 12.391 8.42719 12.5462L15.5 11.4408V12.0735L-0.5 14.5736V13.941L6.58057 12.8346L6.57766 12.6926L6.57669 12.6528L6.57572 12.632L6.57475 12.6005C6.56845 12.4284 6.55245 12.2078 6.52724 11.9402L6.52239 11.8893L6.51367 11.8015C6.46325 11.2954 6.30375 10.8285 6.02401 10.4814C5.67156 10.0427 5.13197 9.79298 4.31605 9.78813H3.8933L3.72507 9.42744C3.32074 8.56061 3.12488 7.69717 3.12488 6.83131C3.12488 5.74244 3.56654 4.68944 4.34417 3.90794L4.41204 3.84152L-0.5 3.07359V2.44141Z" fill="white"/>
<path fill-rule="evenodd" clip-rule="evenodd" d="M7.49996 3.25781C9.73394 3.25781 11.2499 4.97693 11.2499 6.83179C11.2499 7.57645 11.0875 8.35117 10.7084 9.1637C8.51078 9.1637 7.96828 10.7374 7.8655 11.7283L7.85872 11.7938C7.8243 12.1477 7.80393 12.4313 7.7986 12.6446L7.20326 12.7377V12.7183C7.19497 12.4032 7.17362 12.0886 7.13927 11.7753L7.13781 11.7579C7.04279 10.7694 6.51193 9.1637 4.29201 9.1637C3.91241 8.35117 3.75 7.57645 3.75 6.83179C3.75 4.97693 5.26647 3.25781 7.49996 3.25781Z" fill="#0073FA"/>
</g>
<defs>
<clipPath id="clip0_2055_75687">
<rect width="16" height="16" rx="8" fill="white"/>
</clipPath>
</defs>
</svg>
