<svg width="118" height="36" viewBox="0 0 118 36" fill="none" xmlns="http://www.w3.org/2000/svg">
<g clip-path="url(#clip0_9057_334796)">
<path d="M58.537 15.1624C57.727 14.8508 56.6676 14.7574 55.5148 14.7574H49.096V12.7633H60.1262V9.33594H44.5781V24.1672H55.1097C56.5742 24.1672 57.6645 24.0426 58.4748 23.7309C60.1885 23.0765 61.3413 21.4875 61.3413 19.3999C61.3413 17.2813 60.2508 15.8168 58.537 15.1624ZM56.2936 20.3035C56.0444 20.3971 55.7017 20.4281 55.2653 20.4281H49.096V18.0602H55.2653C55.764 18.0602 56.1689 18.0915 56.4806 18.2471C56.8544 18.4341 57.0414 18.7769 57.0414 19.213C57.0414 19.6491 56.8234 20.1165 56.2936 20.3035Z" fill="#333333"/>
<path d="M74.0095 9.33594H67.404L61.3281 24.1672H66.4382L67.2794 22.0173H74.1341L75.0066 24.1672H80.0855L74.0095 9.33594ZM68.401 18.7456L70.5511 12.7633H70.8937L73.0436 18.7456H68.401Z" fill="#333333"/>
<path d="M85.9006 18.6524V24.1672H81.3828V9.33594H85.9006V14.7575H93.1605V9.33594H97.6785V24.1672H93.1605V18.6524H85.9006Z" fill="#333333"/>
<path d="M104.831 18.5588V24.1672H100.312V9.33594H104.831V14.9133H106.077L111.53 9.33594H117.2L109.972 16.44L117.481 24.1672H111.467L106.077 18.5588H104.831Z" fill="#333333"/>
<path d="M0.0859375 -0.199219H36.1044V17.9154C36.1044 22.5593 33.6271 26.8504 29.6057 29.1726L18.0952 35.8192L6.58473 29.1726C2.56323 26.8504 0.0859375 22.5593 0.0859375 17.9154V-0.199219Z" fill="#FFDD2D"/>
<path fill-rule="evenodd" clip-rule="evenodd" d="M9.96875 9.33594V14.97C10.7392 14.1 12.14 13.5112 13.7416 13.5112H15.4821V20.0607C15.4821 21.8032 15.0086 23.3283 14.3062 24.1672H21.877C21.176 23.3275 20.7037 21.8042 20.7037 20.064V13.5112H22.4442C24.0459 13.5112 25.4466 14.1 26.2171 14.97V9.33594H9.96875Z" fill="#333333"/>
</g>
<defs>
<clipPath id="clip0_9057_334796">
<rect width="117.545" height="36" fill="white"/>
</clipPath>
</defs>
</svg>
