<svg width="23" height="22" viewBox="0 0 23 22" fill="none" xmlns="http://www.w3.org/2000/svg">
<path d="M11.4453 22C17.5204 22 22.4453 17.0751 22.4453 11C22.4453 4.92487 17.5204 0 11.4453 0C5.37018 0 0.445312 4.92487 0.445312 11C0.445312 17.0751 5.37018 22 11.4453 22Z" fill="#FC3F1D"/>
<path d="M12.9089 6.2349H11.9005C10.0214 6.2349 9.05885 7.1974 9.05885 8.5724C9.05885 10.1307 9.74635 10.8641 11.1214 11.8266L12.2672 12.6057L8.96719 17.5557H6.49219L9.47135 13.1557C7.77552 11.9182 6.81302 10.7266 6.81302 8.75573C6.81302 6.2349 8.55469 4.53906 11.9005 4.53906H15.2005V17.6016H12.9089V6.2349Z" fill="white"/>
</svg>
