<svg width="117" height="24" viewBox="0 0 117 24" fill="none" xmlns="http://www.w3.org/2000/svg">
<path d="M11.0769 22.1538C17.1945 22.1538 22.1538 17.1945 22.1538 11.0769C22.1538 4.95931 17.1945 0 11.0769 0C4.95931 0 0 4.95931 0 11.0769C0 17.1945 4.95931 22.1538 11.0769 22.1538Z" fill="#FC3F1D"/>
<path d="M12.5538 6.27605H11.5384C9.64613 6.27605 8.6769 7.24528 8.6769 8.6299C8.6769 10.1991 9.36921 10.9376 10.7538 11.9068L11.9077 12.6914L8.58459 17.6761H6.09229L9.09229 13.2453C7.38459 11.9991 6.41536 10.7991 6.41536 8.81451C6.41536 6.27605 8.16921 4.56836 11.5384 4.56836H14.8615V17.7222H12.5538V6.27605Z" fill="white"/>
<path d="M29.7692 22.8008V19.3393H38.1231V22.8008H40.8461V17.0777H39.2769V2.67773H29.5846L29.3538 9.55466C29.2154 13.4777 28.9384 15.7854 28.1538 17.0777H27.0923V22.8008H29.7692ZM31.8923 9.92389L32.0769 4.93927H36.4154V17.0777H30.8769C31.3846 15.9239 31.7538 13.847 31.8923 9.92389ZM47.0307 7.0162C43.8923 7.0162 41.7231 9.23158 41.7231 13.2931C41.7231 17.3085 43.8923 19.57 47.0307 19.57C50.1692 19.57 52.3846 17.3547 52.3846 13.2931C52.3846 9.27773 50.1692 7.0162 47.0307 7.0162ZM47.0307 17.3085C45.4615 17.3085 44.6769 16.0623 44.6769 13.2931C44.6769 10.4777 45.4615 9.27773 47.0307 9.27773C48.6 9.27773 49.4307 10.4777 49.4307 13.2931C49.4307 16.1085 48.6461 17.3085 47.0307 17.3085ZM59.4923 19.57C60.8307 19.57 61.7538 19.3393 62.4461 18.8316V16.5239C61.7077 17.0316 60.8769 17.3547 59.6769 17.3547C57.6461 17.3547 56.8154 15.7854 56.8154 13.2931C56.8154 10.6623 57.8307 9.32389 59.7231 9.32389C60.8307 9.32389 61.8923 9.69312 62.4923 10.0623V7.66235C61.8923 7.33927 60.8307 7.1085 59.4 7.1085C55.7538 7.1085 53.8615 9.73927 53.8615 13.3854C53.8154 17.3547 55.6615 19.57 59.4923 19.57ZM73.2 9.5085V7.24696H63.6461V9.5085H67.0154V19.3393H69.8769V9.5085H73.2ZM83.1692 11.1239C83.1692 8.2162 81.6923 7.1085 78.6461 7.1085C76.7538 7.1085 75.2769 7.7085 74.4 8.2162V10.6162C75.1846 10.0623 76.8461 9.4162 78.3231 9.4162C79.7077 9.4162 80.3077 9.87773 80.3077 11.17V11.8623H79.8461C75.4615 11.8623 73.5231 13.2931 73.5231 15.7393C73.5231 18.1854 75 19.57 77.2154 19.57C78.8769 19.57 79.6154 19.0162 80.1692 18.4623H80.3077C80.3538 18.7854 80.4461 19.2008 80.5384 19.4316H83.3077C83.2154 18.4623 83.1692 17.447 83.1692 16.4777V11.1239ZM80.3538 16.4777C79.9846 16.9854 79.3384 17.447 78.3231 17.447C77.1231 17.447 76.5231 16.7085 76.5231 15.647C76.5231 14.2162 77.4923 13.7085 79.9384 13.7085H80.3538V16.4777ZM90.2307 19.3393C93.0461 19.3393 94.7538 18.1393 94.7538 15.8316C94.7538 14.2623 93.7846 13.3393 92.1692 13.0623C93.4615 12.6931 94.2923 11.77 94.2923 10.3393C94.2923 8.26235 92.9077 7.24696 90.2769 7.24696H85.4769V19.3393H90.2307ZM89.8615 9.4162C90.8769 9.4162 91.4769 9.83158 91.4769 10.7547C91.4769 11.5854 90.8769 12.0931 89.7692 12.0931H88.3384V9.4162H89.8615ZM89.9538 14.2162C91.1538 14.2162 91.8 14.6316 91.8 15.647C91.8 16.7547 91.0615 17.17 89.9538 17.17H88.3846V14.2162H89.9538ZM103.754 19.3393H106.985L102.415 12.8316L106.431 7.24696H103.569L99.5538 12.8316V7.24696H96.6923V19.3393H99.5538V13.3854L103.754 19.3393ZM116.723 11.1239C116.723 8.2162 115.246 7.1085 112.2 7.1085C110.308 7.1085 108.831 7.7085 107.954 8.2162V10.6162C108.738 10.0623 110.4 9.4162 111.877 9.4162C113.262 9.4162 113.862 9.87773 113.862 11.17V11.8623H113.4C109.015 11.8623 107.077 13.2931 107.077 15.7393C107.077 18.1854 108.554 19.57 110.769 19.57C112.431 19.57 113.169 19.0162 113.723 18.4623H113.862C113.908 18.7854 114 19.2008 114.092 19.4316H116.862C116.769 18.4623 116.723 17.447 116.723 16.4777V11.1239ZM113.862 16.4777C113.492 16.9854 112.846 17.447 111.831 17.447C110.631 17.447 110.031 16.7085 110.031 15.647C110.031 14.2162 111 13.7085 113.446 13.7085H113.862V16.4777Z" fill="black"/>
</svg>
