<svg width="52" height="52" fill="none" xmlns="http://www.w3.org/2000/svg"><g clip-path="url(#clip0_401_232)"><path d="M26 3.25c12.675 0 22.75 10.075 22.75 22.75S38.675 48.75 26 48.75 3.25 38.675 3.25 26 13.325 3.25 26 3.25zM26 0C11.7 0 0 11.7 0 26s11.7 26 26 26 26-11.7 26-26S40.3 0 26 0z" fill="#2E2E2E"/><path d="M26 42.9c-6.5 0-12.35-3.9-14.95-10.075l2.925-1.3c1.95 4.875 6.825 7.8 12.025 7.8s10.075-3.25 12.025-7.8l2.925 1.3C38.35 39.325 32.5 42.9 26 42.9zm-3.25-23.4a3.25 3.25 0 11-6.5 0 3.25 3.25 0 016.5 0zm13 0a3.25 3.25 0 11-6.5 0 3.25 3.25 0 016.5 0z" fill="#FF9401"/></g><defs><clipPath id="clip0_401_232"><path fill="#fff" d="M0 0h52v52H0z"/></clipPath></defs></svg>