<svg width="104" height="23" viewBox="0 0 104 23" fill="none" xmlns="http://www.w3.org/2000/svg">
<rect y="1.15039" width="52" height="20.7" rx="10.35" fill="#FF0000"/>
<path d="M9.24323 14.9496H7.61823L10.5769 6.58594H12.4563L15.419 14.9496H13.794L11.5494 8.30114H11.4838L9.24323 14.9496ZM9.29657 11.6703H13.7284V12.8873H9.29657V11.6703Z" fill="white"/>
<path d="M16.0253 14.9496L16.0171 13.7326H16.2346C16.3988 13.7326 16.5369 13.6958 16.6491 13.6223C16.7612 13.5488 16.8543 13.4263 16.9281 13.2548C17.002 13.0806 17.0594 12.8464 17.1005 12.5524C17.1415 12.2583 17.1702 11.8922 17.1866 11.4538L17.2974 8.67685H21.8934V14.9496H20.4572V9.88974H18.6475L18.549 11.9112C18.5244 12.4339 18.4656 12.8873 18.3726 13.2711C18.2823 13.6523 18.1537 13.9667 17.9868 14.2145C17.8227 14.4622 17.6161 14.6474 17.3672 14.7699C17.1183 14.8897 16.8242 14.9496 16.4849 14.9496H16.0253Z" fill="white"/>
<path d="M24.3945 10.7187H26.2534C27.0577 10.7187 27.6801 10.9134 28.1205 11.3027C28.561 11.6921 28.7826 12.2025 28.7853 12.8342C28.7826 13.2453 28.6813 13.6101 28.4816 13.9286C28.2847 14.2472 27.9974 14.4976 27.6199 14.68C27.2451 14.8597 26.7896 14.9496 26.2534 14.9496H23.3891V8.67685H24.8213V13.7367H26.2534C26.5762 13.7367 26.8416 13.655 27.0495 13.4917C27.2574 13.3256 27.3614 13.1132 27.3614 12.8546C27.3614 12.5823 27.2574 12.3604 27.0495 12.1889C26.8416 12.0174 26.5762 11.9316 26.2534 11.9316H24.3945V10.7187Z" fill="white"/>
<path d="M32.9186 17.0813V6.58594H34.4082V17.0813H32.9186ZM32.9186 15.0721C32.4562 15.0721 32.0336 14.9945 31.6506 14.8393C31.2676 14.6841 30.9366 14.4636 30.6575 14.1777C30.3812 13.8919 30.1665 13.5515 30.0133 13.1568C29.8628 12.7593 29.7876 12.3196 29.7876 11.8377C29.7876 11.3558 29.8628 10.9161 30.0133 10.5186C30.1665 10.1212 30.3812 9.77947 30.6575 9.49361C30.9366 9.20502 31.2676 8.98313 31.6506 8.82795C32.0336 8.67276 32.4562 8.59517 32.9186 8.59517H33.2345V15.0721H32.9186ZM32.9186 13.8796H33.1032V9.78764H32.9186C32.6559 9.78764 32.4234 9.84209 32.221 9.95099C32.0213 10.0572 31.853 10.2056 31.7162 10.3961C31.5822 10.584 31.4796 10.8018 31.4085 11.0495C31.3401 11.2946 31.3059 11.5573 31.3059 11.8377C31.3059 12.2107 31.3674 12.5524 31.4905 12.8627C31.6136 13.1704 31.7942 13.4168 32.0322 13.6019C32.273 13.787 32.5684 13.8796 32.9186 13.8796ZM34.4082 15.0721H34.0922V8.59517H34.4082C34.8705 8.59517 35.2932 8.67276 35.6761 8.82795C36.0591 8.98313 36.3888 9.20502 36.6651 9.49361C36.9441 9.77947 37.1589 10.1212 37.3094 10.5186C37.4626 10.9161 37.5392 11.3558 37.5392 11.8377C37.5392 12.3196 37.4626 12.7593 37.3094 13.1568C37.1589 13.5515 36.9441 13.8919 36.6651 14.1777C36.3888 14.4636 36.0591 14.6841 35.6761 14.8393C35.2932 14.9945 34.8705 15.0721 34.4082 15.0721ZM34.4082 13.8796C34.6735 13.8796 34.9061 13.8265 35.1058 13.7203C35.3055 13.6142 35.4723 13.4672 35.6064 13.2793C35.7432 13.0914 35.8458 12.875 35.9142 12.63C35.9825 12.3822 36.0167 12.1181 36.0167 11.8377C36.0167 11.4647 35.9566 11.123 35.8362 10.8127C35.7158 10.5023 35.5353 10.2546 35.2945 10.0694C35.0565 9.88157 34.7611 9.78764 34.4082 9.78764H34.2235V13.8796H34.4082Z" fill="white"/>
<path d="M40.6065 15.0762C40.2071 15.0762 39.8474 15.0054 39.5273 14.8638C39.21 14.7195 38.9583 14.5072 38.7723 14.2267C38.589 13.9463 38.4973 13.6006 38.4973 13.1895C38.4973 12.8355 38.563 12.5429 38.6943 12.3114C38.8256 12.08 39.0048 11.8949 39.2319 11.756C39.4589 11.6172 39.7147 11.5124 39.9992 11.4416C40.2865 11.3681 40.5833 11.315 40.8897 11.2823C41.259 11.2442 41.5586 11.2102 41.7884 11.1802C42.0182 11.1475 42.185 11.0985 42.289 11.0332C42.3957 10.9651 42.449 10.8603 42.449 10.7187V10.6942C42.449 10.3866 42.3574 10.1484 42.1741 9.97958C41.9908 9.81078 41.7268 9.72638 41.3821 9.72638C41.0183 9.72638 40.7297 9.80534 40.5163 9.96325C40.3056 10.1212 40.1634 10.3076 40.0895 10.5227L38.7025 10.3267C38.8119 9.94555 38.9925 9.62701 39.2442 9.37109C39.4959 9.11245 39.8036 8.91915 40.1675 8.79119C40.5313 8.66051 40.9335 8.59517 41.3739 8.59517C41.6776 8.59517 41.9799 8.63056 42.2808 8.70135C42.5817 8.77214 42.8567 8.8892 43.1056 9.05256C43.3545 9.21319 43.5543 9.43235 43.7047 9.71005C43.8579 9.98775 43.9345 10.3349 43.9345 10.7514V14.9496H42.5065V14.0879H42.4572C42.367 14.2621 42.2398 14.4255 42.0756 14.5779C41.9142 14.7277 41.7104 14.8488 41.4642 14.9414C41.2207 15.0312 40.9348 15.0762 40.6065 15.0762ZM40.9923 13.9899C41.2905 13.9899 41.549 13.9313 41.7678 13.8143C41.9867 13.6945 42.1549 13.5366 42.2726 13.3406C42.393 13.1445 42.4531 12.9308 42.4531 12.6994V11.9602C42.4066 11.9983 42.3273 12.0337 42.2151 12.0664C42.1057 12.0991 41.9826 12.1277 41.8458 12.1522C41.709 12.1767 41.5736 12.1984 41.4396 12.2175C41.3055 12.2366 41.1892 12.2529 41.0908 12.2665C40.8692 12.2965 40.6708 12.3455 40.4958 12.4135C40.3207 12.4816 40.1825 12.5769 40.0813 12.6994C39.9801 12.8192 39.9295 12.9744 39.9295 13.1649C39.9295 13.4372 40.0293 13.6428 40.229 13.7816C40.4287 13.9205 40.6831 13.9899 40.9923 13.9899Z" fill="white"/>
<path d="M7.33508 17.2365H15.6971V18.0206H7.33508V17.2365Z" fill="white"/>
<path d="M58.1733 19.5495V2.82227H65.1165C66.3749 2.82227 67.4609 3.06729 68.3747 3.55735C69.2939 4.04196 70.0024 4.71987 70.5003 5.59109C70.9982 6.45685 71.2471 7.46419 71.2471 8.6131C71.2471 9.76746 70.9927 10.7775 70.4839 11.6433C69.9805 12.5036 69.261 13.1706 68.3254 13.6444C67.3898 14.1181 66.2791 14.3549 64.9934 14.3549H60.7093V11.1696H64.2383C64.8511 11.1696 65.3627 11.0634 65.773 10.851C66.1889 10.6387 66.5035 10.3419 66.7168 9.96076C66.9302 9.57416 67.0369 9.12494 67.0369 8.6131C67.0369 8.09582 66.9302 7.64932 66.7168 7.27361C66.5035 6.89246 66.1889 6.59843 65.773 6.39151C65.3572 6.1846 64.8456 6.08114 64.2383 6.08114H62.2358V19.5495H58.1733Z" fill="#1E2025"/>
<path d="M75.0853 19.5495H70.7191L76.3902 2.82227H81.7986L87.4697 19.5495H83.1036L79.156 7.03675H79.0247L75.0853 19.5495ZM74.5026 12.9664H83.6288V16.0375H74.5026V12.9664Z" fill="#1E2025"/>
<path d="M86.9581 2.82227H91.4966L95.0503 9.82191H95.198L98.7517 2.82227H103.29L97.1431 13.9629V19.5495H93.1052V13.9629L86.9581 2.82227Z" fill="#1E2025"/>
</svg>
