<svg width="46" height="23" viewBox="0 0 46 23" fill="none" xmlns="http://www.w3.org/2000/svg">
<g clip-path="url(#clip0_11108_43761)">
<path d="M0 11.5395C0 5.1649 5.17408 0 11.4798 0H34.5202C40.9069 0 46 5.1649 46 11.5395C46 17.9141 40.8259 22.9991 34.5202 22.9991H11.5607C5.17408 23.0799 0 17.915 0 11.5395Z" fill="url(#paint0_linear_11108_43761)"/>
<path d="M22.9595 12.8302V15.493H21.4231V7.01953H24.253C26.921 7.01953 28.0526 7.98766 28.0526 9.84401C28.0526 11.7004 26.7591 12.8302 24.253 12.8302H22.9595ZM22.9595 8.39182V11.4588H24.4149C25.7894 11.4588 26.5171 10.9747 26.5171 9.84493C26.5171 8.79597 25.8704 8.39273 24.4149 8.39273H22.9595V8.39182Z" fill="white"/>
<path d="M28.8613 9.84419C29.2652 9.52179 29.9929 9.2793 31.0445 9.2793C32.8228 9.2793 33.7125 9.84419 33.7125 11.4581V15.4123H32.4189V14.3634C32.096 15.0899 31.3683 15.574 30.3977 15.574C29.1851 15.574 28.4574 14.8474 28.4574 13.7176C28.4574 12.3454 29.4271 11.9421 30.9635 11.9421H32.338V11.6996C32.338 10.8123 31.9341 10.5698 31.1254 10.5698C29.9938 10.5698 29.3471 10.9731 28.9423 11.6188L28.8613 9.84327V9.84419ZM32.257 13.3144V12.8303H31.0445C30.2358 12.8303 29.8319 12.992 29.8319 13.5569C29.8319 14.041 30.1548 14.2835 30.8016 14.2835C31.7713 14.2835 32.1761 13.7186 32.257 13.3153V13.3144Z" fill="white"/>
<path d="M34.3583 9.36029H35.8947L37.5111 13.4762L38.8856 9.36029H40.3411L37.9159 15.9774C37.3501 17.4296 36.8653 17.7529 36.0566 17.7529C35.6527 17.7529 35.2479 17.6721 35.0869 17.5104V16.219C35.2489 16.3806 35.5718 16.5414 35.8147 16.5414C36.2185 16.5414 36.5424 16.219 36.7843 15.4116L34.3592 9.35938L34.3583 9.36029Z" fill="white"/>
<path d="M9.05463 9.84477V11.7011L11.4797 13.2341L17.3815 8.95747C17.1387 8.4734 16.8967 8.07017 16.5729 7.66602L11.4797 11.3778L9.05463 9.84477Z" fill="white"/>
<path d="M16.4919 11.378V11.5397C16.4919 12.6695 16.088 13.7185 15.4413 14.6067C14.7945 15.4949 13.8248 16.0589 12.6923 16.3822C11.6417 16.6247 10.5091 16.5439 9.45851 16.0598C8.40787 15.5757 7.59919 14.8492 7.11435 13.881C6.62951 12.9129 6.38663 11.7831 6.62951 10.6533C6.79143 9.52352 7.35723 8.55539 8.24595 7.82884C9.05463 7.10228 10.1053 6.61821 11.2369 6.61821C12.3685 6.53738 13.42 6.8607 14.3897 7.50551L15.6832 6.61821C14.5516 5.73091 13.0962 5.16602 11.6407 5.16602C10.1853 5.16602 8.73079 5.65008 7.59827 6.5383C6.46667 7.4256 5.65799 8.71705 5.33507 10.1702C5.01215 11.6224 5.17315 13.0755 5.81991 14.3669C6.46667 15.6584 7.51731 16.7882 8.81083 17.3531C10.1043 17.9988 11.6407 18.1605 13.0143 17.8371C14.4697 17.5147 15.6823 16.7074 16.652 15.5776C17.5416 14.4478 18.0265 12.9956 18.0265 11.5425C18.0265 11.1392 18.0265 10.7351 17.9455 10.4127L16.4901 11.3808L16.4919 11.378Z" fill="white"/>
</g>
<defs>
<linearGradient id="paint0_linear_11108_43761" x1="9.69404" y1="26.5942" x2="35.9908" y2="-3.28871" gradientUnits="userSpaceOnUse">
<stop stop-color="#C7E701"/>
<stop offset="0.24" stop-color="#0ADA01"/>
<stop offset="0.44" stop-color="#21DE58"/>
<stop offset="0.63" stop-color="#3EE3A9"/>
<stop offset="0.81" stop-color="#37DABE"/>
<stop offset="1" stop-color="#15CAE0"/>
</linearGradient>
<clipPath id="clip0_11108_43761">
<rect width="46" height="23" fill="white"/>
</clipPath>
</defs>
</svg>
