<svg width="1920" height="983" fill="none" xmlns="http://www.w3.org/2000/svg"><path opacity=".2" fill="url(#paint0_linear_2495_2544)" d="M0 133h1920v850H0z"/><g opacity=".8" clip-path="url(#clip0_2495_2544)" fill="#fff"><path d="M91.907 821.537c-1.286 0-2.251-.972-2.251-2.269 0-1.296.965-2.268 2.251-2.268 1.287 0 2.252.972 2.252 2.268a2.273 2.273 0 01-2.252 2.269zm0 19.334c-1.286 0-2.251-.972-2.251-2.269 0-1.296.965-2.268 2.251-2.268 1.287 0 2.252.972 2.252 2.268 0 1.189-1.072 2.269-2.252 2.269zm0 19.228c-1.286 0-2.251-.972-2.251-2.268 0-1.296.965-2.269 2.251-2.269 1.287 0 2.252.973 2.252 2.269a2.273 2.273 0 01-2.252 2.268zm0 19.334c-1.286 0-2.251-.972-2.251-2.268 0-1.296.965-2.269 2.251-2.269 1.287 0 2.252.973 2.252 2.269a2.273 2.273 0 01-2.252 2.268zm0 19.336c-1.286 0-2.251-.972-2.251-2.268 0-1.296.965-2.269 2.251-2.269 1.287 0 2.252.973 2.252 2.269 0 1.188-1.072 2.268-2.252 2.268zm0 19.334c-1.286 0-2.251-.972-2.251-2.268 0-1.296.965-2.269 2.251-2.269 1.287 0 2.252.973 2.252 2.269a2.273 2.273 0 01-2.252 2.268zm0 19.227c-1.286 0-2.251-.972-2.251-2.269 0-1.296.965-2.268 2.251-2.268 1.287 0 2.252.972 2.252 2.268a2.273 2.273 0 01-2.252 2.269zm0 19.336c-1.286 0-2.251-.973-2.251-2.269 0-1.296.965-2.268 2.251-2.268 1.287 0 2.252.972 2.252 2.268a2.274 2.274 0 01-2.252 2.269zm0 19.334c-1.286 0-2.251-.973-2.251-2.269 0-1.296.965-2.268 2.251-2.268 1.287 0 2.252.972 2.252 2.268 0 1.188-1.072 2.269-2.252 2.269zM75.934 821.537c-1.287 0-2.252-.972-2.252-2.269 0-1.296.965-2.268 2.252-2.268 1.286 0 2.251.972 2.251 2.268 0 1.297-.965 2.269-2.251 2.269zm0 19.334c-1.287 0-2.252-.972-2.252-2.269 0-1.296.965-2.268 2.252-2.268 1.286 0 2.251.972 2.251 2.268 0 1.189-.965 2.269-2.251 2.269zm0 19.228c-1.287 0-2.252-.972-2.252-2.268 0-1.296.965-2.269 2.252-2.269 1.286 0 2.251.973 2.251 2.269 0 1.296-.965 2.268-2.251 2.268zm0 19.334c-1.287 0-2.252-.972-2.252-2.268 0-1.296.965-2.269 2.252-2.269 1.286 0 2.251.973 2.251 2.269 0 1.296-.965 2.268-2.251 2.268zm0 19.336c-1.287 0-2.252-.972-2.252-2.268 0-1.296.965-2.269 2.252-2.269 1.286 0 2.251.973 2.251 2.269 0 1.188-.965 2.268-2.251 2.268zm0 19.334c-1.287 0-2.252-.972-2.252-2.268 0-1.296.965-2.269 2.252-2.269 1.286 0 2.251.973 2.251 2.269 0 1.296-.965 2.268-2.251 2.268zm0 19.227c-1.287 0-2.252-.972-2.252-2.269 0-1.296.965-2.268 2.252-2.268 1.286 0 2.251.972 2.251 2.268 0 1.297-.965 2.269-2.251 2.269zm0 19.336c-1.287 0-2.252-.973-2.252-2.269 0-1.296.965-2.268 2.252-2.268 1.286 0 2.251.972 2.251 2.268 0 1.296-.965 2.269-2.251 2.269zm0 19.334c-1.287 0-2.252-.973-2.252-2.269 0-1.296.965-2.268 2.252-2.268 1.286 0 2.251.972 2.251 2.268 0 1.188-.965 2.269-2.251 2.269zm47.815-154.463c-1.287 0-2.252-.972-2.252-2.269 0-1.296.965-2.268 2.252-2.268 1.286 0 2.251.972 2.251 2.268 0 1.297-.965 2.269-2.251 2.269zm0 19.336c-1.287 0-2.252-.973-2.252-2.269 0-1.296.965-2.268 2.252-2.268 1.286 0 2.251.972 2.251 2.268 0 1.188-.965 2.269-2.251 2.269zm0 19.226c-1.287 0-2.252-.972-2.252-2.268 0-1.296.965-2.269 2.252-2.269 1.286 0 2.251 1.081 2.251 2.269 0 1.296-.965 2.268-2.251 2.268zm0 19.334c-1.287 0-2.252-.972-2.252-2.268 0-1.296.965-2.269 2.252-2.269 1.286 0 2.251 1.081 2.251 2.269 0 1.188-.965 2.268-2.251 2.268zm0 19.336c-1.287 0-2.252-.972-2.252-2.268 0-1.296.965-2.269 2.252-2.269 1.286 0 2.251.973 2.251 2.269 0 1.188-.965 2.268-2.251 2.268zm0 19.334c-1.287 0-2.252-.972-2.252-2.268 0-1.296.965-2.269 2.252-2.269 1.286 0 2.251.973 2.251 2.269 0 1.296-.965 2.268-2.251 2.268zm0 19.227c-1.287 0-2.252-.972-2.252-2.269 0-1.296.965-2.268 2.252-2.268 1.286 0 2.251.972 2.251 2.268 0 1.297-.965 2.269-2.251 2.269zm0 19.336c-1.287 0-2.252-.973-2.252-2.269 0-1.296.965-2.268 2.252-2.268 1.286 0 2.251.972 2.251 2.268 0 1.296-.965 2.269-2.251 2.269zm0 19.334c-1.287 0-2.252-.973-2.252-2.269 0-1.296.965-2.268 2.252-2.268 1.286 0 2.251.972 2.251 2.268 0 1.188-.965 2.269-2.251 2.269zm-15.975-154.463c-1.286 0-2.251-.972-2.251-2.269a2.273 2.273 0 012.251-2.268c1.287 0 2.252.972 2.252 2.268 0 1.297-.965 2.269-2.252 2.269zm0 19.334c-1.286 0-2.251-.972-2.251-2.269 0-1.296.965-2.268 2.251-2.268 1.287 0 2.252.972 2.252 2.268 0 1.189-.965 2.269-2.252 2.269zm0 19.228c-1.286 0-2.251-.972-2.251-2.268 0-1.296.965-2.269 2.251-2.269 1.287 0 2.252.973 2.252 2.269 0 1.296-.965 2.268-2.252 2.268zm0 19.334c-1.286 0-2.251-.972-2.251-2.268 0-1.296.965-2.269 2.251-2.269 1.287 0 2.252.973 2.252 2.269 0 1.296-.965 2.268-2.252 2.268zm0 19.336c-1.286 0-2.251-.972-2.251-2.268 0-1.296.965-2.269 2.251-2.269 1.287 0 2.252.973 2.252 2.269 0 1.188-.965 2.268-2.252 2.268zm0 19.334c-1.286 0-2.251-.972-2.251-2.268 0-1.296.965-2.269 2.251-2.269 1.287 0 2.252.973 2.252 2.269 0 1.296-.965 2.268-2.252 2.268zm0 19.227c-1.286 0-2.251-.972-2.251-2.269 0-1.296.965-2.268 2.251-2.268 1.287 0 2.252.972 2.252 2.268 0 1.297-.965 2.269-2.252 2.269zm0 19.336c-1.286 0-2.251-.973-2.251-2.269 0-1.296.965-2.268 2.251-2.268 1.287 0 2.252.972 2.252 2.268 0 1.296-.965 2.269-2.252 2.269zm0 19.334c-1.286 0-2.251-.973-2.251-2.269 0-1.296.965-2.268 2.251-2.268 1.287 0 2.252.972 2.252 2.268 0 1.188-.965 2.269-2.252 2.269zM60.066 821.537c-1.286 0-2.25-.972-2.25-2.269 0-1.296.964-2.268 2.25-2.268 1.287 0 2.252.972 2.252 2.268a2.273 2.273 0 01-2.252 2.269zm0 19.334c-1.286 0-2.25-.972-2.25-2.269 0-1.296.964-2.268 2.25-2.268 1.287 0 2.252.972 2.252 2.268 0 1.189-1.072 2.269-2.252 2.269zm0 19.228c-1.286 0-2.25-.972-2.25-2.268 0-1.296.964-2.269 2.25-2.269 1.287 0 2.252.973 2.252 2.269a2.273 2.273 0 01-2.252 2.268zm0 19.334c-1.286 0-2.25-.972-2.25-2.268 0-1.296.964-2.269 2.25-2.269 1.287 0 2.252.973 2.252 2.269a2.273 2.273 0 01-2.252 2.268zm0 19.336c-1.286 0-2.25-.972-2.25-2.268 0-1.296.964-2.269 2.25-2.269 1.287 0 2.252.973 2.252 2.269 0 1.188-1.072 2.268-2.252 2.268zm0 19.334c-1.286 0-2.25-.972-2.25-2.268 0-1.296.964-2.269 2.25-2.269 1.287 0 2.252.973 2.252 2.269a2.273 2.273 0 01-2.252 2.268zm0 19.227c-1.286 0-2.25-.972-2.25-2.269 0-1.296.964-2.268 2.25-2.268 1.287 0 2.252.972 2.252 2.268a2.273 2.273 0 01-2.252 2.269zm0 19.336c-1.286 0-2.25-.973-2.25-2.269 0-1.296.964-2.268 2.25-2.268 1.287 0 2.252.972 2.252 2.268a2.274 2.274 0 01-2.252 2.269zm0 19.334c-1.286 0-2.25-.973-2.25-2.269 0-1.296.964-2.268 2.25-2.268 1.287 0 2.252.972 2.252 2.268 0 1.188-1.072 2.269-2.252 2.269zM44.092 821.537c-1.286 0-2.251-.972-2.251-2.269 0-1.296.965-2.268 2.251-2.268 1.287 0 2.252.972 2.252 2.268 0 1.297-.965 2.269-2.252 2.269zm0 19.334c-1.286 0-2.251-.972-2.251-2.269 0-1.296.965-2.268 2.251-2.268 1.287 0 2.252.972 2.252 2.268 0 1.189-.965 2.269-2.252 2.269zm0 19.228c-1.286 0-2.251-.972-2.251-2.268 0-1.296.965-2.269 2.251-2.269 1.287 0 2.252.973 2.252 2.269 0 1.296-.965 2.268-2.252 2.268zm-2.251 17.066a2.26 2.26 0 002.251 2.268 2.26 2.26 0 002.252-2.268 2.26 2.26 0 00-2.252-2.269 2.26 2.26 0 00-2.251 2.269zm2.251 21.604c-1.286 0-2.251-.972-2.251-2.268 0-1.296.965-2.269 2.251-2.269 1.287 0 2.252.973 2.252 2.269 0 1.188-.965 2.268-2.252 2.268zm0 19.334c-1.286 0-2.251-.972-2.251-2.268 0-1.296.965-2.269 2.251-2.269 1.287 0 2.252.973 2.252 2.269 0 1.296-.965 2.268-2.252 2.268zm0 19.227c-1.286 0-2.251-.972-2.251-2.269 0-1.296.965-2.268 2.251-2.268 1.287 0 2.252.972 2.252 2.268 0 1.297-.965 2.269-2.252 2.269zm-2.251 17.067a2.26 2.26 0 002.251 2.269 2.26 2.26 0 002.252-2.269 2.26 2.26 0 00-2.252-2.268 2.26 2.26 0 00-2.251 2.268zM44.092 976c-1.286 0-2.251-.973-2.251-2.269 0-1.296.965-2.268 2.251-2.268 1.287 0 2.252.972 2.252 2.268 0 1.188-.965 2.269-2.252 2.269zM28.118 821.537c-1.286 0-2.251-.972-2.251-2.269 0-1.296.965-2.268 2.251-2.268 1.287 0 2.252.972 2.252 2.268 0 1.297-.965 2.269-2.252 2.269zm0 19.334c-1.286 0-2.251-.972-2.251-2.269 0-1.296.965-2.268 2.251-2.268 1.287 0 2.252.972 2.252 2.268 0 1.189-.965 2.269-2.252 2.269zm0 19.228c-1.286 0-2.251-.972-2.251-2.268 0-1.296.965-2.269 2.251-2.269 1.287 0 2.252.973 2.252 2.269 0 1.296-.965 2.268-2.252 2.268zm0 19.334c-1.286 0-2.251-.972-2.251-2.268 0-1.296.965-2.269 2.251-2.269 1.287 0 2.252.973 2.252 2.269 0 1.296-.965 2.268-2.252 2.268zm0 19.336c-1.286 0-2.251-.972-2.251-2.268 0-1.296.965-2.269 2.251-2.269 1.287 0 2.252.973 2.252 2.269 0 1.188-.965 2.268-2.252 2.268zm0 19.334c-1.286 0-2.251-.972-2.251-2.268 0-1.296.965-2.269 2.251-2.269 1.287 0 2.252.973 2.252 2.269 0 1.296-.965 2.268-2.252 2.268zm0 19.227c-1.286 0-2.251-.972-2.251-2.269 0-1.296.965-2.268 2.251-2.268 1.287 0 2.252.972 2.252 2.268 0 1.297-.965 2.269-2.252 2.269zm0 19.336c-1.286 0-2.251-.973-2.251-2.269 0-1.296.965-2.268 2.251-2.268 1.287 0 2.252.972 2.252 2.268 0 1.296-.965 2.269-2.252 2.269zm0 19.334c-1.286 0-2.251-.973-2.251-2.269 0-1.296.965-2.268 2.251-2.268 1.287 0 2.252.972 2.252 2.268 0 1.188-.965 2.269-2.252 2.269zM12.252 821.537c-1.287 0-2.252-.972-2.252-2.269 0-1.296.965-2.268 2.252-2.268 1.286 0 2.25.972 2.25 2.268a2.273 2.273 0 01-2.25 2.269zm0 19.334c-1.287 0-2.252-.972-2.252-2.269 0-1.296.965-2.268 2.252-2.268 1.286 0 2.25.972 2.25 2.268 0 1.189-1.071 2.269-2.25 2.269zm0 19.228c-1.287 0-2.252-.972-2.252-2.268 0-1.296.965-2.269 2.252-2.269 1.286 0 2.25.973 2.25 2.269a2.273 2.273 0 01-2.25 2.268zm0 19.334c-1.287 0-2.252-.972-2.252-2.268 0-1.296.965-2.269 2.252-2.269 1.286 0 2.25.973 2.25 2.269a2.273 2.273 0 01-2.25 2.268zm0 19.336c-1.287 0-2.252-.972-2.252-2.268 0-1.296.965-2.269 2.252-2.269 1.286 0 2.25.973 2.25 2.269 0 1.188-1.071 2.268-2.25 2.268zm0 19.334c-1.287 0-2.252-.972-2.252-2.268 0-1.296.965-2.269 2.252-2.269 1.286 0 2.25.973 2.25 2.269a2.273 2.273 0 01-2.25 2.268zm0 19.227c-1.287 0-2.252-.972-2.252-2.269 0-1.296.965-2.268 2.252-2.268 1.286 0 2.25.972 2.25 2.268a2.273 2.273 0 01-2.25 2.269zm0 19.336c-1.287 0-2.252-.973-2.252-2.269 0-1.296.965-2.268 2.252-2.268 1.286 0 2.25.972 2.25 2.268a2.274 2.274 0 01-2.25 2.269zm0 19.334c-1.287 0-2.252-.973-2.252-2.269 0-1.296.965-2.268 2.252-2.268 1.286 0 2.25.972 2.25 2.268 0 1.188-1.071 2.269-2.25 2.269z"/></g><g opacity=".2" clip-path="url(#clip1_2495_2544)" fill="#fff"><path d="M1838.1 0C1759.54 0 1696 63.544 1696 142.097c0 78.359 63.54 142.098 142.1 142.098 78.36 0 142.09-63.544 142.09-142.098C1980 63.544 1916.46 0 1838.1 0zm0 275.034c-73.49 0-132.94-59.451-132.94-132.937 0-73.485 59.45-132.936 132.94-132.936 73.48 0 132.93 59.451 132.93 132.936 0 73.291-59.64 132.937-132.93 132.937z"/><path d="M1838.1 30.604c-61.4 0-111.3 49.9-111.3 111.299 0 61.401 49.9 111.3 111.3 111.3s111.3-49.704 111.3-111.105c0-61.595-49.9-111.495-111.3-111.495zm0 205.641c-52.05 0-94.34-42.298-94.34-94.342 0-52.043 42.29-94.341 94.34-94.341 52.04 0 94.34 42.297 94.34 94.341s-42.3 94.342-94.34 94.342z"/><path d="M1838.1 79.527c-34.5 0-62.57 28.069-62.57 62.57 0 34.501 27.87 62.57 62.57 62.57 34.5 0 62.57-28.069 62.57-62.57-.2-34.501-28.07-62.57-62.57-62.57zm0 96.096c-18.52 0-33.53-15.009-33.53-33.526 0-18.518 15.01-33.526 33.53-33.526 18.52 0 33.52 15.008 33.52 33.526 0 18.517-15 33.526-33.52 33.526z"/></g><defs><clipPath id="clip0_2495_2544"><path fill="#fff" transform="rotate(90 -345.5 471.5)" d="M0 0h159v116H0z"/></clipPath><clipPath id="clip1_2495_2544"><path fill="#fff" transform="translate(1696)" d="M0 0h284v284H0z"/></clipPath><linearGradient id="paint0_linear_2495_2544" x1="0" y1="983" x2="966.121" y2="-491.851" gradientUnits="userSpaceOnUse"><stop stop-color="#FF3F3A"/><stop offset="1" stop-color="#F75E05"/></linearGradient></defs></svg>