<svg width="111" height="114" fill="none" xmlns="http://www.w3.org/2000/svg"><g filter="url(#filter0_d_366_1129)"><path d="M78 110c-4.15 0-8.05-.788-11.7-2.364-3.65-1.576-6.825-3.713-9.525-6.411-2.7-2.7-4.837-5.875-6.411-9.525C48.79 88.05 48.002 84.15 48 80c0-4.15.788-8.05 2.364-11.7 1.576-3.65 3.713-6.825 6.411-9.525 2.7-2.7 5.875-4.837 9.525-6.411C69.95 50.79 73.85 50.002 78 50c4.15 0 8.05.788 11.7 2.364 3.65 1.576 6.825 3.713 9.525 6.411 2.7 2.7 4.838 5.875 6.414 9.525 1.576 3.65 2.363 7.55 2.361 11.7 0 4.15-.788 8.05-2.364 11.7-1.576 3.65-3.713 6.825-6.411 9.525-2.7 2.7-5.875 4.838-9.525 6.414-3.65 1.576-7.55 2.363-11.7 2.361z" fill="url(#paint0_linear_366_1129)" shape-rendering="crispEdges"/></g><g filter="url(#filter1_b_366_1129)"><path d="M40.435 69.214h6.375v-4.553c3.036-.547 5.647-1.73 7.832-3.552 2.186-1.822 3.279-4.523 3.279-8.105 0-2.55-.729-4.888-2.186-7.013-1.457-2.125-4.371-3.977-8.743-5.555-3.643-1.215-6.162-2.277-7.559-3.188-1.396-.91-2.094-2.155-2.094-3.734 0-1.578.562-2.823 1.686-3.734 1.125-.91 2.748-1.366 4.87-1.366 1.944 0 3.462.47 4.554 1.41a7.998 7.998 0 012.368 3.508l5.829-2.368c-.668-2.125-1.897-3.977-3.687-5.555-1.79-1.579-3.779-2.46-5.967-2.641v-4.554h-6.375v4.554c-3.035.668-5.403 2.003-7.103 4.007-1.7 2.004-2.55 4.25-2.55 6.74 0 2.853.835 5.16 2.506 6.92 1.67 1.761 4.296 3.28 7.876 4.554 3.825 1.397 6.482 2.641 7.97 3.734 1.49 1.093 2.232 2.52 2.23 4.28 0 2.004-.714 3.477-2.142 4.42-1.428.942-3.143 1.411-5.144 1.41-2.003 0-3.78-.623-5.33-1.866-1.549-1.243-2.687-3.111-3.413-5.603l-6.01 2.368c.85 2.914 2.17 5.268 3.963 7.06 1.792 1.792 4.114 3.021 6.965 3.686v4.736zm3.279 10.929c-5.04 0-9.775-.957-14.207-2.87-4.433-1.914-8.288-4.51-11.567-7.786-3.278-3.278-5.873-7.133-7.784-11.566-1.912-4.432-2.868-9.167-2.87-14.207 0-5.04.956-9.775 2.87-14.207 1.913-4.432 4.508-8.287 7.784-11.566 3.28-3.279 7.134-5.873 11.567-7.785 4.432-1.911 9.167-2.868 14.207-2.87 5.039 0 9.775.957 14.207 2.87 4.432 1.914 8.287 4.509 11.566 7.785 3.279 3.279 5.875 7.134 7.788 11.566 1.914 4.432 2.87 9.168 2.867 14.207 0 5.04-.957 9.775-2.87 14.207-1.914 4.432-4.509 8.288-7.785 11.566-3.279 3.279-7.134 5.875-11.566 7.789-4.432 1.914-9.168 2.87-14.207 2.867z" fill="url(#paint1_linear_366_1129)" fill-opacity=".5"/></g><defs><linearGradient id="paint0_linear_366_1129" x1="78" y1="87.234" x2="62.315" y2="33.073" gradientUnits="userSpaceOnUse"><stop stop-color="#fff"/><stop offset="1" stop-color="#EBEBEB" stop-opacity="0"/></linearGradient><linearGradient id="paint1_linear_366_1129" x1="47.689" y1="36.412" x2="13.974" y2="-9.376" gradientUnits="userSpaceOnUse"><stop stop-color="#fff"/><stop offset="1" stop-color="#F2F2F2"/></linearGradient><filter id="filter0_d_366_1129" x="45.903" y="48.323" width="65.032" height="65.032" filterUnits="userSpaceOnUse" color-interpolation-filters="sRGB"><feFlood flood-opacity="0" result="BackgroundImageFix"/><feColorMatrix in="SourceAlpha" values="0 0 0 0 0 0 0 0 0 0 0 0 0 0 0 0 0 0 127 0" result="hardAlpha"/><feOffset dx=".419" dy=".839"/><feGaussianBlur stdDeviation="1.258"/><feComposite in2="hardAlpha" operator="out"/><feColorMatrix values="0 0 0 0 0.109804 0 0 0 0 0.372549 0 0 0 0 0.215686 0 0 0 0.6 0"/><feBlend in2="BackgroundImageFix" result="effect1_dropShadow_366_1129"/><feBlend in="SourceGraphic" in2="effect1_dropShadow_366_1129" result="shape"/></filter><filter id="filter1_b_366_1129" x="3.548" y="3.549" width="80.331" height="80.331" filterUnits="userSpaceOnUse" color-interpolation-filters="sRGB"><feFlood flood-opacity="0" result="BackgroundImageFix"/><feGaussianBlur in="BackgroundImageFix" stdDeviation="1.869"/><feComposite in2="SourceAlpha" operator="in" result="effect1_backgroundBlur_366_1129"/><feBlend in="SourceGraphic" in2="effect1_backgroundBlur_366_1129" result="shape"/></filter></defs></svg>