<svg width="89" height="115" fill="none" xmlns="http://www.w3.org/2000/svg"><g filter="url(#filter0_d_366_1118)"><path fill-rule="evenodd" clip-rule="evenodd" d="M77.21 52.004A76.241 76.241 0 0064.555 51c-5.154 0-9.404.454-12.653 1.003-3.293.555-4.938.832-6.314 2.526-1.373 1.694-1.3 3.524-1.156 7.184.446 11.224 2.656 24.948 13.623 28.744 2.374.822 4.332 2.837 4.332 5.35v1.649a4.134 4.134 0 01-4.134 4.134 2.892 2.892 0 00-2.833 2.324 3.406 3.406 0 01-3.339 2.735H47.21a2.166 2.166 0 00-1.533 3.701 2.17 2.17 0 001.533.635H81.9a2.17 2.17 0 002.168-2.168 2.167 2.167 0 00-2.168-2.168h-4.87a3.406 3.406 0 01-3.339-2.735 2.892 2.892 0 00-2.833-2.324 4.134 4.134 0 01-4.134-4.134v-1.65c0-2.513 1.957-4.527 4.332-5.349 10.967-3.796 13.18-17.517 13.623-28.744.145-3.66.22-5.492-1.156-7.184-1.376-1.694-3.021-1.971-6.314-2.526z" fill="url(#paint0_linear_366_1118)" shape-rendering="crispEdges"/></g><g filter="url(#filter1_b_366_1118)"><path d="M84.846 29.082v.27c0 3.19 0 4.788-.767 6.093-.768 1.306-2.166 2.08-4.955 3.634l-2.94 1.632c2.024-6.853 2.703-14.218 2.951-20.514l.038-.82.007-.193c2.414.838 3.771 1.465 4.617 2.637 1.05 1.457 1.05 3.393 1.05 7.26zm-74.166 0v.27c0 3.19 0 4.788.767 6.093.768 1.306 2.166 2.08 4.955 3.634l2.944 1.632c-2.028-6.853-2.707-14.218-2.956-20.514l-.037-.82-.003-.193c-2.418.838-3.775 1.465-4.62 2.637-1.05 1.457-1.05 3.396-1.05 7.26z" fill="url(#paint1_linear_366_1118)" fill-opacity=".5"/></g><g filter="url(#filter2_b_366_1118)"><path fill-rule="evenodd" clip-rule="evenodd" d="M63.992 7.518A97.8 97.8 0 0047.761 6.23c-6.612 0-12.064.582-16.232 1.287-4.224.712-6.334 1.068-8.099 3.24-1.761 2.174-1.668 4.521-1.483 9.216.641 16.124 4.12 36.267 23.032 38.047v13.106h-5.303a3.708 3.708 0 00-3.634 2.981l-.704 3.508H25.51a2.781 2.781 0 100 5.563h44.5a2.781 2.781 0 100-5.563h-9.827l-.705-3.508a3.709 3.709 0 00-3.634-2.981h-5.303V58.02c18.912-1.78 22.394-21.92 23.032-38.047.186-4.695.282-7.046-1.483-9.215-1.765-2.173-3.875-2.53-8.099-3.241zm-13.313 12.83a2.78 2.78 0 011.717 2.57v14.834a2.781 2.781 0 11-5.563 0V29.63l-.815.816a2.782 2.782 0 11-3.931-3.93l5.562-5.563a2.781 2.781 0 013.03-.604z" fill="url(#paint2_linear_366_1118)" fill-opacity=".5"/></g><defs><linearGradient id="paint0_linear_366_1118" x1="64.556" y1="88.225" x2="43.256" y2="38.695" gradientUnits="userSpaceOnUse"><stop stop-color="#fff"/><stop offset="1" stop-color="#EBEBEB" stop-opacity="0"/></linearGradient><linearGradient id="paint1_linear_366_1118" x1="51.809" y1="27.79" x2="47.545" y2="7.838" gradientUnits="userSpaceOnUse"><stop stop-color="#fff"/><stop offset="1" stop-color="#F2F2F2"/></linearGradient><linearGradient id="paint2_linear_366_1118" x1="50.588" y1="36.992" x2="13.447" y2="3.023" gradientUnits="userSpaceOnUse"><stop stop-color="#fff"/><stop offset="1" stop-color="#F2F2F2"/></linearGradient><filter id="filter0_d_366_1118" x="41.863" y="49.003" width="46.386" height="65.976" filterUnits="userSpaceOnUse" color-interpolation-filters="sRGB"><feFlood flood-opacity="0" result="BackgroundImageFix"/><feColorMatrix in="SourceAlpha" values="0 0 0 0 0 0 0 0 0 0 0 0 0 0 0 0 0 0 127 0" result="hardAlpha"/><feOffset dx=".499" dy=".998"/><feGaussianBlur stdDeviation="1.497"/><feComposite in2="hardAlpha" operator="out"/><feColorMatrix values="0 0 0 0 0.109804 0 0 0 0 0.372549 0 0 0 0 0.215686 0 0 0 0.6 0"/><feBlend in2="BackgroundImageFix" result="effect1_dropShadow_366_1118"/><feBlend in="SourceGraphic" in2="effect1_dropShadow_366_1118" result="shape"/></filter><filter id="filter1_b_366_1118" x="4.973" y="13.478" width="85.579" height="32.939" filterUnits="userSpaceOnUse" color-interpolation-filters="sRGB"><feFlood flood-opacity="0" result="BackgroundImageFix"/><feGaussianBlur in="BackgroundImageFix" stdDeviation="2.853"/><feComposite in2="SourceAlpha" operator="in" result="effect1_backgroundBlur_366_1118"/><feBlend in="SourceGraphic" in2="effect1_backgroundBlur_366_1118" result="shape"/></filter><filter id="filter2_b_366_1118" x="16.145" y=".524" width="63.231" height="88.361" filterUnits="userSpaceOnUse" color-interpolation-filters="sRGB"><feFlood flood-opacity="0" result="BackgroundImageFix"/><feGaussianBlur in="BackgroundImageFix" stdDeviation="2.853"/><feComposite in2="SourceAlpha" operator="in" result="effect1_backgroundBlur_366_1118"/><feBlend in="SourceGraphic" in2="effect1_backgroundBlur_366_1118" result="shape"/></filter></defs></svg>