<svg width="102" height="101" fill="none" xmlns="http://www.w3.org/2000/svg"><g filter="url(#filter0_d_366_1090)"><rect x="47" y="46" width="50" height="50" rx="5.742" fill="url(#paint0_linear_366_1090)" shape-rendering="crispEdges"/></g><g filter="url(#filter1_b_366_1090)"><path d="M32.058 0a4.072 4.072 0 012.746 1.062 3.845 3.845 0 011.25 2.601c.06.99-.272 1.965-.928 2.725a4.042 4.042 0 01-2.6 1.367l-.468.027H8.014v54.475h56.101V38.91a3.831 3.831 0 011.094-2.667 4.059 4.059 0 012.679-1.213 4.086 4.086 0 012.806.9 3.86 3.86 0 011.408 2.524l.028.456v23.346a7.66 7.66 0 01-2.138 5.294 8.11 8.11 0 01-5.276 2.468l-.6.02H8.013a8.146 8.146 0 01-5.452-2.076A7.696 7.696 0 01.02 62.841L0 62.256V7.782a7.66 7.66 0 012.138-5.294A8.11 8.11 0 017.413.02L8.014 0h24.044zM67.12 0c2.765 0 5.009 2.179 5.009 4.864v14.591a3.835 3.835 0 01-1.174 2.752 4.069 4.069 0 01-2.834 1.14 4.069 4.069 0 01-2.833-1.14 3.835 3.835 0 01-1.174-2.752v-6.17L37.724 38.91h6.355a4.07 4.07 0 012.834 1.14 3.835 3.835 0 011.174 2.752 3.835 3.835 0 01-1.174 2.751 4.069 4.069 0 01-2.834 1.14H29.052c-2.765 0-5.009-2.18-5.009-4.864V27.237c0-1.032.422-2.021 1.174-2.751a4.069 4.069 0 012.833-1.14 4.07 4.07 0 012.834 1.14 3.835 3.835 0 011.174 2.751v6.172L58.449 7.782h-6.355a4.069 4.069 0 01-2.834-1.14 3.835 3.835 0 01-1.173-2.751c0-1.032.422-2.022 1.173-2.751A4.069 4.069 0 0152.094 0H67.12z" fill="url(#paint1_linear_366_1090)" fill-opacity=".5"/></g><defs><linearGradient id="paint0_linear_366_1090" x1="72" y1="77.028" x2="58.929" y2="31.894" gradientUnits="userSpaceOnUse"><stop stop-color="#fff"/><stop offset="1" stop-color="#EBEBEB" stop-opacity="0"/></linearGradient><linearGradient id="paint1_linear_366_1090" x1="40" y1="28" x2="7.884" y2="-16.92" gradientUnits="userSpaceOnUse"><stop stop-color="#fff"/><stop offset="1" stop-color="#F2F2F2"/></linearGradient><filter id="filter0_d_366_1090" x="44.057" y="43.646" width="57.062" height="57.062" filterUnits="userSpaceOnUse" color-interpolation-filters="sRGB"><feFlood flood-opacity="0" result="BackgroundImageFix"/><feColorMatrix in="SourceAlpha" values="0 0 0 0 0 0 0 0 0 0 0 0 0 0 0 0 0 0 127 0" result="hardAlpha"/><feOffset dx=".589" dy="1.177"/><feGaussianBlur stdDeviation="1.766"/><feComposite in2="hardAlpha" operator="out"/><feColorMatrix values="0 0 0 0 0.109804 0 0 0 0 0.372549 0 0 0 0 0.215686 0 0 0 0.6 0"/><feBlend in2="BackgroundImageFix" result="effect1_dropShadow_366_1090"/><feBlend in="SourceGraphic" in2="effect1_dropShadow_366_1090" result="shape"/></filter><filter id="filter1_b_366_1090" x="-6.412" y="-6.412" width="84.953" height="82.862" filterUnits="userSpaceOnUse" color-interpolation-filters="sRGB"><feFlood flood-opacity="0" result="BackgroundImageFix"/><feGaussianBlur in="BackgroundImageFix" stdDeviation="3.206"/><feComposite in2="SourceAlpha" operator="in" result="effect1_backgroundBlur_366_1090"/><feBlend in="SourceGraphic" in2="effect1_backgroundBlur_366_1090" result="shape"/></filter></defs></svg>