<svg width="96" height="118" fill="none" xmlns="http://www.w3.org/2000/svg"><g filter="url(#filter0_d_366_1108)" clip-path="url(#clip0_366_1108)"><path d="M54.277 105.158c-4.235 0-7.84-1.489-10.818-4.466-2.978-2.978-4.467-6.584-4.467-10.818 0-4.001 1.338-7.457 4.015-10.365a15.34 15.34 0 013.296-2.731c2.905-1.775 5.065-5.435 3.547-8.482l-6.042-12.131c-.465-.93-.43-1.838.106-2.722.536-.884 1.338-1.326 2.406-1.326h11.586c1.07 0 2.036.279 2.898.837a6.11 6.11 0 012.057 2.233c1.668 3.336 6.428 3.336 8.096 0a6.134 6.134 0 012.06-2.233c.862-.558 1.827-.837 2.895-.837h11.585c1.07 0 1.874.442 2.41 1.326.536.884.57 1.791.103 2.722l-6.017 12.08c-1.506 3.023.604 6.656 3.482 8.423a15.688 15.688 0 013.339 2.773c2.676 2.91 4.013 6.364 4.012 10.363 0 4.28-1.49 7.91-4.467 10.888-2.978 2.977-6.607 4.466-10.888 4.466-.418 0-.85-.012-1.292-.036-1.48-.081-1.624-.861-.148-1.003 3.285-.318 7.318-.211 8.507-1.4 1.763-3.526-1.483-9.842-1.483-12.915-1.984-4.716-1.757-9.363-5.271-12.875-6.116-1.832-7.806-5.269-12.875-5.27-3.233 2.262-9.363 1.756-12.875 5.27-3.512 3.514-5.27 7.805-5.271 12.875 0 3.164.651 6.142 1.954 8.933 1.885 1.885 8.934 5.572 11.725 6.921-.419.093-5.768-.391-6.211-.367-.443.024-1.54-.131-1.954-.133zm8.165.5c-3.49 0-9.281-4.477-11.725-6.92-2.444-2.444-1.956-5.446-1.954-8.934 0-3.49.808-11.181 5.27-12.875 2.444-2.444 9.388-5.273 12.876-5.27 3.49 0 10.431 2.826 12.875 5.27 2.444 2.444 5.272 9.388 5.27 12.875 0 3.49 3.835 9.977 1.484 12.915-2.444 2.444-20.608 2.941-24.096 2.939z" fill="url(#paint0_linear_366_1108)" shape-rendering="crispEdges"/></g><g filter="url(#filter1_b_366_1108)"><path d="M24.604 69.125c-4.992 0-9.244-1.755-12.755-5.267-3.511-3.51-5.267-7.762-5.267-12.755 0-4.718 1.578-8.792 4.733-12.222 3.156-3.43 7.092-5.336 11.808-5.717L12.26 11.356c-.549-1.097-.507-2.167.125-3.209.632-1.042 1.578-1.564 2.838-1.564h13.66c1.262 0 2.4.33 3.417.988a7.206 7.206 0 012.426 2.633l4.773 9.546 4.773-9.546A7.233 7.233 0 0146.7 7.571c1.016-.658 2.154-.987 3.413-.987h13.66c1.263 0 2.21.52 2.841 1.563.633 1.042.673 2.112.122 3.21l-10.78 21.642c4.663.439 8.573 2.373 11.728 5.803 3.156 3.43 4.733 7.503 4.73 12.219 0 5.047-1.755 9.326-5.266 12.837-3.511 3.512-7.79 5.267-12.838 5.267a27.98 27.98 0 01-1.524-.043 9.553 9.553 0 01-1.52-.204c3.017-1.975 5.376-4.539 7.076-7.692 1.701-3.154 2.551-6.542 2.551-10.165 0-5.98-2.071-11.04-6.214-15.181-4.143-4.141-9.204-6.213-15.181-6.215-5.98 0-11.04 2.072-15.182 6.215-4.14 4.143-6.212 9.203-6.214 15.181 0 3.73.768 7.242 2.304 10.533 1.536 3.292 3.95 5.733 7.242 7.324a9.381 9.381 0 01-1.524.208c-.523.028-1.032.041-1.521.04zm14.895-3.291c-4.115 0-7.613-1.441-10.494-4.323-2.881-2.88-4.321-6.378-4.319-10.49 0-4.115 1.44-7.613 4.322-10.494 2.882-2.881 6.378-4.32 10.49-4.319 4.115 0 7.613 1.441 10.495 4.322 2.88 2.882 4.32 6.379 4.318 10.491 0 4.115-1.44 7.612-4.322 10.494-2.881 2.881-6.378 4.32-10.49 4.319zm0-10.37l4.032 3.046c.33.274.658.288.988.042.329-.245.438-.562.329-.948l-1.564-5.02 4.032-2.88c.33-.274.44-.59.33-.948-.11-.357-.385-.535-.823-.533h-4.938l-1.563-5.349c-.11-.384-.384-.576-.823-.576-.44 0-.714.192-.823.576l-1.564 5.35h-4.937c-.44 0-.713.178-.823.536-.11.357 0 .672.329.944l4.032 2.88-1.563 5.02c-.11.384 0 .7.329.948.33.248.658.234.987-.042l4.033-3.045z" fill="url(#paint1_linear_366_1108)" fill-opacity=".5"/></g><defs><linearGradient id="paint0_linear_366_1108" x1="66.909" y1="85.35" x2="53.397" y2="36.707" gradientUnits="userSpaceOnUse"><stop stop-color="#fff"/><stop offset="1" stop-color="#EBEBEB" stop-opacity="0"/></linearGradient><linearGradient id="paint1_linear_366_1108" x1="43.09" y1="31.586" x2="14.621" y2="-9.114" gradientUnits="userSpaceOnUse"><stop stop-color="#fff"/><stop offset="1" stop-color="#F2F2F2"/></linearGradient><filter id="filter0_d_366_1108" x="36.528" y="50.145" width="61.748" height="59.468" filterUnits="userSpaceOnUse" color-interpolation-filters="sRGB"><feFlood flood-opacity="0" result="BackgroundImageFix"/><feColorMatrix in="SourceAlpha" values="0 0 0 0 0 0 0 0 0 0 0 0 0 0 0 0 0 0 127 0" result="hardAlpha"/><feOffset dx=".493" dy=".986"/><feGaussianBlur stdDeviation="1.479"/><feComposite in2="hardAlpha" operator="out"/><feColorMatrix values="0 0 0 0 0.109804 0 0 0 0 0.372549 0 0 0 0 0.215686 0 0 0 0.6 0"/><feBlend in2="BackgroundImageFix" result="effect1_dropShadow_366_1108"/><feBlend in="SourceGraphic" in2="effect1_dropShadow_366_1108" result="shape"/></filter><filter id="filter1_b_366_1108" x="1.517" y="1.518" width="75.963" height="72.672" filterUnits="userSpaceOnUse" color-interpolation-filters="sRGB"><feFlood flood-opacity="0" result="BackgroundImageFix"/><feGaussianBlur in="BackgroundImageFix" stdDeviation="2.533"/><feComposite in2="SourceAlpha" operator="in" result="effect1_backgroundBlur_366_1108"/><feBlend in="SourceGraphic" in2="effect1_backgroundBlur_366_1108" result="shape"/></filter><clipPath id="clip0_366_1108"><path fill="#fff" transform="translate(29 51)" d="M0 0h67v67H0z"/></clipPath></defs></svg>