<svg width="109" height="129" fill="none" xmlns="http://www.w3.org/2000/svg"><g filter="url(#filter0_d_366_1095)"><circle cx="73.746" cy="92.416" r="30" fill="url(#paint0_linear_366_1095)" shape-rendering="crispEdges"/></g><g filter="url(#filter1_b_366_1095)"><mask id="a" fill="#fff"><path d="M84.152 51.912c0 20.503-16.621 37.125-37.125 37.125-20.503 0-37.125-16.622-37.125-37.125 0-20.504 16.622-37.125 37.125-37.125"/></mask><path d="M77.637 51.912c0 16.905-13.705 30.61-30.61 30.61v13.03c24.102 0 43.64-19.539 43.64-43.64h-13.03zm-30.61 30.61c-16.905 0-30.61-13.705-30.61-30.61H3.388c0 24.101 19.538 43.64 43.64 43.64v-13.03zm-30.61-30.61c0-16.906 13.705-30.61 30.61-30.61V8.272c-24.102 0-43.64 19.538-43.64 43.64h13.03z" fill="url(#paint1_linear_366_1095)" fill-opacity=".5" mask="url(#a)"/></g><path d="M28.246 57.828c17.531 0 24.75-1.032 39.188-19.594" stroke="url(#paint2_linear_366_1095)" stroke-opacity=".5" stroke-width="8.284" stroke-linecap="round" stroke-linejoin="round"/><path d="M50.82 37.79h16.5v16.5" stroke="url(#paint3_linear_366_1095)" stroke-opacity=".5" stroke-width="8.284" stroke-linecap="round" stroke-linejoin="round"/><g filter="url(#filter2_b_366_1095)"><path d="M83.924 14.787l-8.022 8.02 8.022-8.02z" fill="url(#paint4_linear_366_1095)"/></g><defs><linearGradient id="paint0_linear_366_1095" x1="73.746" y1="99.649" x2="58.061" y2="45.488" gradientUnits="userSpaceOnUse"><stop stop-color="#fff"/><stop offset="1" stop-color="#EBEBEB" stop-opacity="0"/></linearGradient><linearGradient id="paint1_linear_366_1095" x1="46.961" y1="74.684" x2="25.728" y2="-8.104" gradientUnits="userSpaceOnUse"><stop stop-color="#fff"/><stop offset="1" stop-color="#F2F2F2"/></linearGradient><linearGradient id="paint2_linear_366_1095" x1="43.654" y1="53.427" x2="81.834" y2="46.322" gradientUnits="userSpaceOnUse"><stop stop-color="#fff"/><stop offset="1" stop-color="#F2F2F2"/></linearGradient><linearGradient id="paint3_linear_366_1095" x1="59.07" y1="49.324" x2="54.205" y2="32.702" gradientUnits="userSpaceOnUse"><stop stop-color="#fff"/><stop offset="1" stop-color="#F2F2F2"/></linearGradient><linearGradient id="paint4_linear_366_1095" x1="79.906" y1="21.257" x2="77.612" y2="12.314" gradientUnits="userSpaceOnUse"><stop stop-color="#FF0909"/><stop offset="1" stop-color="#F2F2F2"/></linearGradient><filter id="filter0_d_366_1095" x="40.149" y="59.538" width="68.633" height="68.633" filterUnits="userSpaceOnUse" color-interpolation-filters="sRGB"><feFlood flood-opacity="0" result="BackgroundImageFix"/><feColorMatrix in="SourceAlpha" values="0 0 0 0 0 0 0 0 0 0 0 0 0 0 0 0 0 0 127 0" result="hardAlpha"/><feOffset dx=".719" dy="1.439"/><feGaussianBlur stdDeviation="2.158"/><feComposite in2="hardAlpha" operator="out"/><feColorMatrix values="0 0 0 0 0.109804 0 0 0 0 0.372549 0 0 0 0 0.215686 0 0 0 0.6 0"/><feBlend in2="BackgroundImageFix" result="effect1_dropShadow_366_1095"/><feBlend in="SourceGraphic" in2="effect1_dropShadow_366_1095" result="shape"/></filter><filter id="filter1_b_366_1095" x="1.548" y="6.432" width="90.959" height="90.959" filterUnits="userSpaceOnUse" color-interpolation-filters="sRGB"><feFlood flood-opacity="0" result="BackgroundImageFix"/><feGaussianBlur in="BackgroundImageFix" stdDeviation="4.177"/><feComposite in2="SourceAlpha" operator="in" result="effect1_backgroundBlur_366_1095"/><feBlend in="SourceGraphic" in2="effect1_backgroundBlur_366_1095" result="shape"/></filter><filter id="filter2_b_366_1095" x="74.599" y="13.483" width="10.628" height="10.627" filterUnits="userSpaceOnUse" color-interpolation-filters="sRGB"><feFlood flood-opacity="0" result="BackgroundImageFix"/><feGaussianBlur in="BackgroundImageFix" stdDeviation=".652"/><feComposite in2="SourceAlpha" operator="in" result="effect1_backgroundBlur_366_1095"/><feBlend in="SourceGraphic" in2="effect1_backgroundBlur_366_1095" result="shape"/></filter></defs></svg>