<svg width="36" height="36" viewBox="0 0 36 36" fill="none" xmlns="http://www.w3.org/2000/svg">
<mask id="mask0_12004_49284" style="mask-type:luminance" maskUnits="userSpaceOnUse" x="0" y="1" width="36" height="34">
<path d="M35.5781 1.6875H0V34.6514H35.5781V1.6875Z" fill="white"/>
</mask>
<g mask="url(#mask0_12004_49284)">
<path d="M10.6629 34.5875C16.5345 34.5875 21.2945 29.8275 21.2945 23.9558C21.2945 18.0841 16.5345 13.3242 10.6629 13.3242C4.79119 13.3242 0.03125 18.0841 0.03125 23.9558C0.03125 29.8275 4.79119 34.5875 10.6629 34.5875Z" fill="#04E061"/>
<path d="M29.0962 33.247C32.6442 33.247 35.5204 30.3707 35.5204 26.8227C35.5204 23.2746 32.6442 20.3984 29.0962 20.3984C25.5481 20.3984 22.6719 23.2746 22.6719 26.8227C22.6719 30.3707 25.5481 33.247 29.0962 33.247Z" fill="#FF4053"/>
<path d="M12.6942 11.9392C14.8898 11.9392 16.6697 10.1593 16.6697 7.96376C16.6697 5.76816 14.8898 3.98828 12.6942 3.98828C10.4986 3.98828 8.71875 5.76816 8.71875 7.96376C8.71875 10.1593 10.4986 11.9392 12.6942 11.9392Z" fill="#965EEB"/>
<path d="M26.6205 19.0105C31.3943 19.0105 35.2644 15.1404 35.2644 10.3666C35.2644 5.59266 31.3943 1.72266 26.6205 1.72266C21.8465 1.72266 17.9766 5.59266 17.9766 10.3666C17.9766 15.1404 21.8465 19.0105 26.6205 19.0105Z" fill="#00AAFF"/>
</g>
</svg>
