<svg width="36" height="36" viewBox="0 0 36 36" fill="none" xmlns="http://www.w3.org/2000/svg">
<g clip-path="url(#clip0_12004_49300)">
<mask id="mask0_12004_49300" style="mask-type:luminance" maskUnits="userSpaceOnUse" x="0" y="0" width="36" height="36">
<path d="M28.8025 35.9901H7.22469C3.25117 35.9901 0.03125 32.7687 0.03125 28.796V7.20841C0.03125 3.2331 3.25117 0.0117188 7.22469 0.0117188H28.8025C32.776 0.0117188 35.9959 3.2331 35.9959 7.20841V28.796C35.9934 32.7687 32.7734 35.9901 28.8025 35.9901Z" fill="white"/>
</mask>
<g mask="url(#mask0_12004_49300)">
<path d="M35.9934 0.0117188H0.03125V35.9901H35.9934V0.0117188Z" fill="#005BFF"/>
</g>
<mask id="mask1_12004_49300" style="mask-type:luminance" maskUnits="userSpaceOnUse" x="0" y="0" width="36" height="36">
<path d="M28.8025 0.0119629H7.22469C3.25117 0.0119629 0.03125 3.23334 0.03125 7.20866V28.7962C0.03125 32.769 3.25117 35.9903 7.22469 35.9903H28.8025C32.7734 35.9903 35.9934 32.769 35.9959 28.7962V7.20866C35.9959 3.23334 32.776 0.0119629 28.8025 0.0119629Z" fill="white"/>
</mask>
<g mask="url(#mask1_12004_49300)">
<path d="M39.9748 30.8352C37.2423 33.2942 34.0922 36.9236 30.1351 36.7807C29.0698 36.0625 30.7544 34.6625 31.2943 34.0566C33.0191 32.121 34.7206 30.0549 36.3972 27.9489C42.4283 20.3733 40.454 24.5961 39.9748 30.8352Z" fill="#F1117E"/>
<path d="M32.96 -6.42335C30.2682 -0.266127 26.9678 5.85043 22.3108 10.7702C19.0884 14.1744 16.8449 16.7166 12.8689 19.7761C8.26965 23.3153 3.77001 26.074 -0.58641 29.8268C-2.88852 31.9472 -5.60267 33.7008 -8.53125 34.9465C-8.51331 35.1855 -8.26719 38.6404 -8.25957 38.6861C-8.21897 38.6632 -7.40448 38.0083 -7.24209 37.889C-0.368985 33.1068 7.53369 29.8932 14.2618 24.7719C22.5405 17.8048 29.4745 9.19034 35.3959 0.161702C40.785 -7.36586 44.3192 -7.49268 32.96 -6.42335Z" fill="#F1117E"/>
<path d="M6.61206 1.91386C5.00591 3.61466 3.43782 5.31801 1.86719 7.05435C1.01209 8.00376 0.240735 9.02678 -0.604209 9.99142C-2.11394 11.7151 -3.67696 13.4184 -5.46073 14.8273C-7.26987 16.2539 -9.21603 17.6958 -11.0607 19.0768C-11.0658 18.9727 -11.284 14.1343 -11.2891 14.0251C-10.5076 12.7 -9.72097 11.1997 -9.13991 9.76041C-8.79737 8.91001 -8.49542 8.01645 -8.15034 7.16605C-7.49062 5.5287 -6.62538 4.03098 -5.35162 2.83788C-4.64116 2.17025 -3.82413 1.69808 -2.98426 1.24877C-0.464653 -0.101725 2.05242 -1.47506 4.5771 -2.81286C6.08176 -3.61249 7.22103 -5.00614 8.5633 -6.05962L13.8892 -6.30078C11.4711 -3.54649 9.13167 -0.754123 6.61206 1.91386Z" fill="#F1117E"/>
<path d="M18.2911 40.6379C20.2954 38.602 27.3177 33.8726 26.1988 33.2244C26.098 33.1661 25.9735 33.1662 25.8688 33.2169C22.0121 35.0821 18.4117 37.7323 15.702 41.0927C15.6321 41.1794 15.527 41.2298 15.4156 41.2286C14.7811 41.2221 12.7299 41.1991 11.414 41.1845C11.0624 41.1806 10.9215 40.7285 11.2086 40.5254C11.4314 40.3678 11.6158 40.2338 11.7198 40.1566C14.8977 37.7055 18.4377 35.8657 21.8675 33.8658C25.9795 31.4683 29.5445 28.2358 32.3348 24.3785C33.6182 22.6044 34.9268 20.8522 36.4596 19.2998C36.4761 19.2831 36.4942 19.2682 36.5137 19.255C40.7928 16.3454 41.9766 7.64408 47.8794 4.56926C48.1232 4.44222 48.414 4.61929 48.4117 4.89435C48.3922 7.13278 45.4352 8.95275 45.2413 11.2497C45.2394 11.2723 45.2356 11.2947 45.2296 11.3166C42.9349 19.6643 34.8481 25.3265 31.0103 29.6846C28.7307 32.2732 26.0275 37.4235 22.9205 40.862C22.8864 40.8998 22.8608 40.9443 22.8449 40.9927C22.6895 41.4663 19.9082 41.3028 18.5377 41.2541C18.2228 41.2429 18.07 40.8624 18.2911 40.6379Z" fill="#F1117E"/>
<path d="M-10.0391 42.2288C-2.34502 36.9173 6.85223 34.1528 14.3884 28.6773C18.7538 24.9199 22.093 20.0123 26.5202 16.359C27.7436 15.6216 27.4003 16.7406 27.0031 17.4657C22.5564 26.3884 13.6778 31.5081 5.40486 36.4024C-0.561414 40.2193 -1.74978 43.4012 -10.0391 42.2288Z" fill="#F1117E"/>
<path d="M42.957 5.63584C49.6362 2.3181 47.9028 -1.18648 47.038 -7.88257C43.5474 -5.40219 41.3519 -2.59749 38.686 0.675218C30.8003 9.80521 28.0065 23.1666 17.3207 29.9997C11.8337 33.193 7.3988 37.7348 2.71094 41.9436C3.77057 41.5708 9.71355 42.1929 10.0136 40.5576C11.415 38.1873 12.9444 36.3061 15.52 35.1891C20.3516 32.6514 24.5205 29.0479 28.7598 25.6466C34.5766 19.89 34.5814 9.0338 42.957 5.63584Z" fill="#F1117E"/>
<path d="M32.1743 -6.4018C27.9292 1.29186 20.149 9.15479 12.2815 15.0423C9.21792 17.3349 5.66103 18.8725 1.89796 19.5631C-0.973029 20.0899 -2.2246 20.9276 -6.32756 24.3758C-7.74608 25.8551 -8.50983 27.2285 -9.73538 29.5918C-9.73792 29.5106 -10.0703 22.22 -10.0703 22.22C-6.80625 17.7713 -1.81559 15.8418 1.96455 12.0508C5.08163 8.7945 7.2572 4.71095 10.1323 1.24431C11.5679 -0.581238 16.1185 -4.69893 16.9755 -5.71403C16.9856 -5.71386 21.6848 -5.9271 21.6848 -5.9271C19.5367 -3.20505 17.3488 -0.607482 12.8098 4.76649C12.2637 5.41306 7.75312 10.0594 6.10436 12.6157C5.56754 13.448 5.20393 14.2943 5.60902 14.6101C6.03813 14.9446 6.64239 14.3883 7.61956 13.7775C13.2268 10.2725 17.1467 6.96382 21.6875 1.30532C29.0381 -7.85451 23.4039 -7.04012 32.1743 -6.4018Z" fill="#F1117E"/>
</g>
<mask id="mask2_12004_49300" style="mask-type:luminance" maskUnits="userSpaceOnUse" x="0" y="0" width="36" height="36">
<path d="M28.8025 0.0119629H7.22469C3.25117 0.0119629 0.03125 3.23334 0.03125 7.20866V28.7962C0.03125 32.769 3.25117 35.9903 7.22469 35.9903H28.8025C32.7734 35.9903 35.9934 32.769 35.9959 28.7962V7.20866C35.9959 3.23334 32.776 0.0119629 28.8025 0.0119629Z" fill="white"/>
</mask>
<g mask="url(#mask2_12004_49300)">
<path d="M15.1022 20.7429L11.929 21.5936L14.5437 15.1413C14.6011 14.9973 14.531 14.8341 14.387 14.7766C14.3314 14.7545 14.2703 14.7507 14.2124 14.7657L8.34983 16.3373C7.83237 16.476 7.52524 17.0082 7.66389 17.5259C7.80255 18.0436 8.33451 18.3509 8.85198 18.2122L11.4882 17.5055L8.85903 23.9644C8.79949 24.1059 8.86588 24.2689 9.00733 24.3285C9.06531 24.3529 9.12985 24.3569 9.19031 24.3399L15.605 22.6203C16.1146 22.4549 16.3936 21.9074 16.2282 21.3976C16.0749 20.9249 15.5894 20.6445 15.1035 20.748L15.1022 20.7429ZM34.0363 9.45152C33.5188 9.59026 33.2117 10.1224 33.3504 10.6401L34.1925 13.7843L28.0507 11.1213C27.9107 11.0583 27.7462 11.1208 27.6833 11.2609C27.6567 11.32 27.6516 11.3865 27.6689 11.449L29.3999 17.9122C29.5386 18.4299 30.0705 18.7371 30.588 18.5983C31.1055 18.4596 31.4126 17.9275 31.274 17.4098L30.4319 14.2656L36.5743 16.9312C36.7168 16.992 36.8816 16.9256 36.9423 16.7831C36.9668 16.7255 36.9714 16.6614 36.9553 16.6009L35.2243 10.1378C35.0857 9.62009 34.5538 9.3128 34.0363 9.45152ZM22.2379 19.0201C20.0955 19.5944 18.1898 18.8942 17.9191 17.8833C17.6483 16.8724 18.9487 15.3128 21.0912 14.7384C23.2336 14.1641 25.1393 14.8643 25.41 15.8752C25.6808 16.8861 24.3854 18.4444 22.2379 19.0201ZM20.5897 12.8661C17.4875 13.6977 15.4538 16.1681 16.0476 18.385C16.6413 20.6018 19.6372 21.7241 22.7394 20.8925C25.8416 20.0609 27.8752 17.5904 27.2814 15.3735C26.6877 13.1567 23.6919 12.0345 20.5897 12.8661ZM3.79494 23.9669C2.61211 24.2855 1.39506 23.5844 1.07656 22.401C0.75817 21.2176 1.4589 20 2.64175 19.6815C3.82457 19.3629 5.04162 20.0639 5.3601 21.2473L5.36078 21.2498C5.67757 22.4326 4.97684 23.6486 3.79494 23.9669ZM2.14603 17.8103C-0.071146 18.4031 -1.38818 20.682 -0.795538 22.9001C-0.202961 25.1184 2.07483 26.4359 4.29201 25.8431C6.50917 25.2502 7.82622 22.9714 7.23356 20.7532C7.2331 20.7515 7.23265 20.7498 7.2322 20.7481C6.6386 18.5318 4.36147 17.2164 2.14603 17.8103Z" fill="white"/>
</g>
</g>
<defs>
<clipPath id="clip0_12004_49300">
<rect width="36" height="36" fill="white"/>
</clipPath>
</defs>
</svg>
