<svg width="36" height="36" viewBox="0 0 36 36" fill="none" xmlns="http://www.w3.org/2000/svg">
<rect width="36" height="36" rx="13.037" fill="#0077FF"/>
<path d="M18.8858 24.2992C12.1209 24.2992 8.26234 19.5695 8.10156 11.6992H11.4902C11.6015 17.4758 14.0997 19.9226 16.0785 20.4271V11.6992H19.2692V16.6812C21.2232 16.4668 23.2762 14.1965 23.9688 11.6992H27.1595C26.8986 12.9944 26.3783 14.2207 25.6314 15.3015C24.8845 16.3822 23.9269 17.2942 22.8186 17.9803C24.0557 18.6072 25.1484 19.4946 26.0246 20.5838C26.9008 21.673 27.5405 22.9393 27.9016 24.2992H24.3893C24.0651 23.1181 23.4064 22.0607 22.4956 21.2598C21.5848 20.4588 20.4625 19.9498 19.2692 19.7965V24.2992H18.8858V24.2992Z" fill="white"/>
</svg>
