<svg width="36" height="36" viewBox="0 0 36 36" fill="none" xmlns="http://www.w3.org/2000/svg">
<g clip-path="url(#clip0_12004_49275)">
<path d="M0 16.902C0 10.9836 0 8.028 1.152 5.7672C2.1636 3.78 3.78 2.1636 5.7672 1.152C8.028 0 10.9836 0 16.902 0H19.1016C25.0164 0 27.972 0 30.2328 1.152C32.22 2.1636 33.8364 3.78 34.848 5.7672C36 8.028 36 10.9836 36 16.902V19.1016C36 25.0164 36 27.9756 34.848 30.2364C33.8364 32.22 32.22 33.8364 30.2328 34.848C27.972 36 25.0164 36 19.098 36H16.8984C10.9836 36 8.0244 36 5.7636 34.848C3.78 33.8364 2.1636 32.22 1.152 30.2328C0 27.972 0 25.0164 0 19.098V16.902Z" fill="url(#paint0_linear_12004_49275)"/>
<path d="M27.3938 12.7044C26.105 12.7044 24.9386 13.0932 23.945 13.7628V7.66797H21.1946V18.9C21.1946 22.3164 23.9738 25.0668 27.3758 25.0668C30.7778 25.0668 33.5894 22.3344 33.5894 18.8676C33.593 15.4044 30.8426 12.7044 27.3938 12.7044ZM14.9126 19.6956L12.3962 13.14H10.4702L7.93945 19.6956L5.40505 13.14H2.40625L6.83425 24.6672H8.76025L11.4171 17.802L14.0882 24.6672H16.0142L20.4278 13.14H17.4434L14.9126 19.6956ZM27.3794 22.32C25.5146 22.32 23.945 20.8296 23.945 18.8856C23.945 16.9416 25.421 15.4692 27.3938 15.4692C29.3666 15.4692 30.8426 17.0064 30.8426 18.8856C30.8426 20.7684 29.273 22.32 27.3794 22.32Z" fill="white"/>
</g>
<defs>
<linearGradient id="paint0_linear_12004_49275" x1="7.12776" y1="36.1204" x2="29.2187" y2="-0.697893" gradientUnits="userSpaceOnUse">
<stop stop-color="#6F01FB"/>
<stop offset="1" stop-color="#FF49D7"/>
</linearGradient>
<clipPath id="clip0_12004_49275">
<rect width="36" height="36" fill="white"/>
</clipPath>
</defs>
</svg>
