<svg width="36" height="36" viewBox="0 0 36 36" fill="none" xmlns="http://www.w3.org/2000/svg">
<g clip-path="url(#clip0_12004_49280)">
<path d="M19.0523 33.4872C10.7795 33.4872 4.05469 26.7554 4.05469 18.4427C4.05469 10.1301 10.7795 3.34766 19.0523 3.34766C27.3251 3.34766 34.0499 10.1301 34.0499 18.4464C34.0499 26.759 27.3251 33.4872 19.0523 33.4872Z" fill="#FF5226"/>
<path d="M16.7328 5.39062L0 31.6234H7.6716L17.3376 16.503L17.1 16.3945L14.4216 27.2139L20.0952 28.2195L25.9272 20.8547L25.6104 20.6955L23.6412 29.0588L36.0036 26.693L33.48 22.5223L29.0232 23.546L29.5488 24.1537L31.6224 15.4178L26.7876 12.1695L20.4624 20.1674L20.7756 20.3266L23.3748 9.84717L16.7328 5.39062Z" fill="#FFDD00"/>
<path d="M16.7328 5.39062L0 31.6234H7.6716L17.3376 16.503L17.1 16.3945L14.4216 27.2139L20.0952 28.2195L25.9272 20.8547L25.6104 20.6955L23.6412 29.0588L28.6092 28.1074L31.626 15.4142L26.7912 12.1659L20.4624 20.1674L20.7756 20.3266L23.3748 9.84717L16.7328 5.39062Z" fill="#FFDD00"/>
</g>
<defs>
<clipPath id="clip0_12004_49280">
<rect width="36" height="36" fill="white"/>
</clipPath>
</defs>
</svg>
