<svg width="36" height="36" viewBox="0 0 36 36" fill="none" xmlns="http://www.w3.org/2000/svg">
<rect width="36" height="36" rx="13.037" fill="#F40000"/>
<path fill-rule="evenodd" clip-rule="evenodd" d="M10.1378 24.3511C9.78477 24.2467 9.46265 24.0609 9.19862 23.8094C8.9346 23.5579 8.73642 23.2481 8.62082 22.9061C7.96019 21.1386 7.76445 13.7582 9.03676 12.3013C9.46021 11.8273 10.0581 11.5355 10.7006 11.4892C14.1138 11.1309 24.6593 11.1787 25.8704 11.6086C26.2111 11.7165 26.5223 11.8982 26.7808 12.1402C27.0393 12.3822 27.2383 12.6781 27.363 13.0059C28.0847 14.8331 28.1092 21.473 27.2651 23.2285C27.0412 23.6855 26.6663 24.0557 26.2007 24.2795C24.9284 24.9005 11.8261 24.8885 10.1378 24.3511V24.3511ZM15.5574 20.8878L21.6742 17.7828L15.5574 14.6539V20.8878Z" fill="white"/>
</svg>
