<svg xmlns="http://www.w3.org/2000/svg" xmlns:xlink="http://www.w3.org/1999/xlink"><symbol viewBox="0 0 1000 1000" xml:space="preserve" id="close" xmlns="http://www.w3.org/2000/svg"><path d="M622.3 500l342.4-342.4C980.3 142 990 120.3 990 96.5c0-47.8-38.7-86.5-86.5-86.5-23.9 0-45.5 9.7-61.1 25.4L500 377.7 157.6 35.3C141.9 19.7 120.3 10 96.5 10 48.7 10 10 48.7 10 96.5c0 23.9 9.7 45.5 25.4 61.1L377.7 500 35.3 842.4C19.7 858.1 10 879.7 10 903.5c0 47.8 38.7 86.5 86.5 86.5 23.9 0 45.5-9.7 61.1-25.4L500 622.3l342.4 342.4c15.7 15.6 37.3 25.3 61.1 25.3 47.8 0 86.5-38.7 86.5-86.5 0-23.9-9.7-45.5-25.4-61.1L622.3 500z"/></symbol><symbol viewBox="0 0 68 74" id="decor-1" xmlns="http://www.w3.org/2000/svg"><g clip-path="url(#ba)" fill-rule="evenodd" clip-rule="evenodd"><path d="M22.426 68.528c-6.4-1.796-13.1-2.702-19.6-3.532-1.4-.174-2.7.797-2.8 2.165-.2 1.369.8 2.62 2.1 2.795 6.3.799 12.8 1.654 18.9 3.383 1.3.375 2.7-.397 3.1-1.725.4-1.327-.4-2.71-1.7-3.086zm19.399-25.463c-10.3-10.511-21.9-19.67-32-30.462-.9-1.008-2.5-1.062-3.5-.121-1 .942-1.1 2.526-.1 3.534 10.1 10.824 21.7 20.012 32 30.554 1 .984 2.6.998 3.6.03.9-.967 1-2.551 0-3.535zM61.126 2.636l.9 18.049c0 1.378 1.2 2.442 2.6 2.375 1.4-.068 2.4-1.241 2.4-2.62l-.9-18.076a2.564 2.564 0 00-2.7-2.36c-1.3.075-2.4 1.255-2.3 2.632z"/></g><defs><clipPath id="ba"><path d="M0 0h68v74H0z"/></clipPath></defs></symbol><symbol viewBox="0 0 160 11" id="decor-2" xmlns="http://www.w3.org/2000/svg"><path fill-rule="evenodd" clip-rule="evenodd" d="M161.952 6.532C129.845.776 97.196 3.959 65.009 2.923 43.725 2.23 22.439.559 1.17 0 .533-.015.01.97.001 2.207c-.011 1.238.5 2.253 1.137 2.267 21.267.56 42.55 2.23 63.831 2.923 32.13 1.036 64.717-2.155 96.766 3.594.635.111 1.198-.79 1.259-2.02.058-1.231-.412-2.32-1.043-2.44z"/></symbol><symbol viewBox="0 0 147 91" id="decor-3" xmlns="http://www.w3.org/2000/svg"><g clip-path="url(#da)" fill-rule="evenodd" clip-rule="evenodd"><path d="M18.685.219C12.884 2.83 7.122 5.362 1.4 8.142a2.464 2.464 0 00-1.154 3.293 2.463 2.463 0 003.295 1.158c5.692-2.76 11.405-5.272 17.166-7.864a2.48 2.48 0 001.244-3.264A2.469 2.469 0 0018.685.22zm42.62 30.891C52.88 49.399 45.38 68.103 37.35 86.56a2.478 2.478 0 001.273 3.255 2.472 2.472 0 003.256-1.276c8.01-18.428 15.489-37.103 23.905-55.352a2.478 2.478 0 00-1.204-3.284 2.466 2.466 0 00-3.275 1.207zm72.286 4.748c2.694 16.815 5.861 33.58 8.367 50.426a2.476 2.476 0 002.801 2.076 2.475 2.475 0 002.082-2.808c-2.516-16.865-5.683-33.65-8.386-50.486a2.465 2.465 0 00-2.821-2.047 2.468 2.468 0 00-2.043 2.839z"/></g><defs><clipPath id="da"><path d="M0 0h147v91H0z"/></clipPath></defs></symbol><symbol viewBox="0 0 24 24" id="facebook" xmlns="http://www.w3.org/2000/svg"><path d="M18 2h-3a5 5 0 00-5 5v3H7v4h3v8h4v-8h3l1-4h-4V7a1 1 0 011-1h3V2z" stroke-width="2" stroke-linecap="round" stroke-linejoin="round"/></symbol><symbol viewBox="0 0 24 24" id="instagram" xmlns="http://www.w3.org/2000/svg"><path d="M17 2H7a5 5 0 00-5 5v10a5 5 0 005 5h10a5 5 0 005-5V7a5 5 0 00-5-5z" stroke-width="2" stroke-linecap="round" stroke-linejoin="round"/><path d="M16 11.37a4 4 0 11-7.914 1.173A4 4 0 0116 11.37zm1.5-4.87h.01" stroke-width="2" stroke-linecap="round" stroke-linejoin="round"/></symbol><symbol viewBox="0 0 25 22" id="open-menu" xmlns="http://www.w3.org/2000/svg"><path d="M.781 4.688h20.313c.431 0 .781-.35.781-.782V.781A.781.781 0 0021.094 0H.78A.781.781 0 000 .781v3.125c0 .432.35.781.781.781zM24.22 8.594H3.906a.781.781 0 00-.781.781V12.5c0 .432.35.781.781.781H24.22c.431 0 .781-.35.781-.781V9.375a.781.781 0 00-.781-.781zm-3.125 8.594H.78a.781.781 0 00-.781.78v3.126c0 .431.35.781.781.781h20.313c.431 0 .781-.35.781-.781v-3.125a.781.781 0 00-.781-.782z"/></symbol><symbol viewBox="0 0 18 17" id="star" xmlns="http://www.w3.org/2000/svg"><g clip-path="url(#ha)"><path d="M9.013 13.697l4.15 2.51c.76.46 1.69-.22 1.49-1.08l-1.1-4.72 3.67-3.18c.67-.58.31-1.68-.57-1.75l-4.83-.41-1.89-4.46c-.34-.81-1.5-.81-1.84 0l-1.89 4.45-4.83.41c-.88.07-1.24 1.17-.57 1.75l3.67 3.18-1.1 4.72c-.2.86.73 1.54 1.49 1.08l4.15-2.5z"/></g><defs><clipPath id="ha"><path d="M0 0h18v17H0z"/></clipPath></defs></symbol><symbol viewBox="0 0 24 24" id="twitter" xmlns="http://www.w3.org/2000/svg"><path d="M23 3a10.9 10.9 0 01-3.14 1.53 4.48 4.48 0 00-7.86 3v1A10.66 10.66 0 013 4s-4 9 5 13a11.64 11.64 0 01-7 2c9 5 20 0 20-11.5 0-.28-.03-.56-.08-.83A7.72 7.72 0 0023 3z" stroke-width="2" stroke-linecap="round" stroke-linejoin="round"/></symbol></svg>