<svg width="52" height="18" viewBox="0 0 52 18" fill="none" xmlns="http://www.w3.org/2000/svg">
<rect width="52" height="18" rx="9" fill="#FF0000"/>
<path d="M11.4989 12H10.0927L12.6531 4.72727H14.2795L16.8434 12H15.4371L13.4947 6.21875H13.4379L11.4989 12ZM11.5451 9.14844H15.3803V10.2067H11.5451V9.14844ZM17.3681 12L17.361 10.9418H17.5492C17.6912 10.9418 17.8108 10.9098 17.9078 10.8459C18.0049 10.782 18.0854 10.6754 18.1493 10.5263C18.2132 10.3748 18.263 10.1712 18.2985 9.91548C18.334 9.6598 18.3588 9.34138 18.373 8.96023L18.4689 6.54545H22.4462V12H21.2033V7.60014H19.6373L19.552 9.35795C19.5307 9.8125 19.4798 10.2067 19.3993 10.5405C19.3212 10.8719 19.2099 11.1454 19.0655 11.3608C18.9235 11.5762 18.7447 11.7372 18.5293 11.8438C18.3139 11.9479 18.0594 12 17.7658 12H17.3681ZM24.6106 8.32102H26.2193C26.9153 8.32102 27.4539 8.49029 27.835 8.82884C28.2162 9.16738 28.408 9.61127 28.4103 10.1605C28.408 10.518 28.3204 10.8352 28.1475 11.1122C27.9771 11.3892 27.7285 11.607 27.4018 11.7656C27.0775 11.9219 26.6833 12 26.2193 12H23.7406V6.54545H24.9799V10.9453H26.2193C26.4986 10.9453 26.7283 10.8743 26.9082 10.7322C27.0881 10.5878 27.1781 10.4032 27.1781 10.1783C27.1781 9.94152 27.0881 9.74858 26.9082 9.59943C26.7283 9.45028 26.4986 9.37571 26.2193 9.37571H24.6106V8.32102ZM31.9872 13.8537V4.72727H33.2763V13.8537H31.9872ZM31.9872 12.1065C31.5871 12.1065 31.2214 12.0391 30.8899 11.9041C30.5585 11.7692 30.272 11.5774 30.0305 11.3288C29.7914 11.0803 29.6056 10.7843 29.473 10.4411C29.3428 10.0954 29.2777 9.71307 29.2777 9.29403C29.2777 8.875 29.3428 8.49266 29.473 8.14702C29.6056 7.80137 29.7914 7.50426 30.0305 7.25568C30.272 7.00473 30.5585 6.81179 30.8899 6.67685C31.2214 6.5419 31.5871 6.47443 31.9872 6.47443H32.2607V12.1065H31.9872ZM31.9872 11.0696H32.147V7.51136H31.9872C31.7599 7.51136 31.5587 7.55871 31.3835 7.65341C31.2107 7.74574 31.0651 7.87476 30.9467 8.04048C30.8307 8.20384 30.742 8.39323 30.6804 8.60866C30.6212 8.82173 30.5916 9.05019 30.5916 9.29403C30.5916 9.61837 30.6449 9.91548 30.7514 10.1854C30.858 10.4529 31.0142 10.6671 31.2202 10.8281C31.4285 10.9891 31.6842 11.0696 31.9872 11.0696ZM33.2763 12.1065H33.0028V6.47443H33.2763C33.6764 6.47443 34.0421 6.5419 34.3736 6.67685C34.705 6.81179 34.9903 7.00473 35.2294 7.25568C35.4709 7.50426 35.6567 7.80137 35.7869 8.14702C35.9195 8.49266 35.9858 8.875 35.9858 9.29403C35.9858 9.71307 35.9195 10.0954 35.7869 10.4411C35.6567 10.7843 35.4709 11.0803 35.2294 11.3288C34.9903 11.5774 34.705 11.7692 34.3736 11.9041C34.0421 12.0391 33.6764 12.1065 33.2763 12.1065ZM33.2763 11.0696C33.5059 11.0696 33.7071 11.0234 33.88 10.9311C34.0528 10.8388 34.1972 10.7109 34.3132 10.5476C34.4316 10.3842 34.5204 10.196 34.5795 9.98295C34.6387 9.76752 34.6683 9.53788 34.6683 9.29403C34.6683 8.9697 34.6162 8.67259 34.5121 8.4027C34.4079 8.13281 34.2517 7.91738 34.0433 7.75639C33.8374 7.59304 33.5817 7.51136 33.2763 7.51136H33.1165V11.0696H33.2763ZM38.6403 12.1101C38.2946 12.1101 37.9833 12.0485 37.7063 11.9254C37.4317 11.8 37.2139 11.6153 37.0529 11.3714C36.8943 11.1276 36.815 10.8269 36.815 10.4695C36.815 10.1617 36.8718 9.9072 36.9854 9.70597C37.0991 9.50473 37.2541 9.34375 37.4506 9.22301C37.6471 9.10227 37.8685 9.01113 38.1147 8.94957C38.3633 8.88565 38.6201 8.83949 38.8853 8.81108C39.2049 8.77794 39.4641 8.74834 39.663 8.7223C39.8619 8.69389 40.0063 8.65128 40.0962 8.59446C40.1886 8.53527 40.2347 8.44413 40.2347 8.32102V8.29972C40.2347 8.0322 40.1554 7.82505 39.9968 7.67827C39.8382 7.53149 39.6097 7.4581 39.3114 7.4581C38.9966 7.4581 38.7468 7.52675 38.5621 7.66406C38.3799 7.80137 38.2567 7.96354 38.1928 8.15057L36.9925 7.98011C37.0872 7.64867 37.2435 7.37169 37.4613 7.14915C37.6791 6.92424 37.9454 6.75616 38.2603 6.64489C38.5752 6.53125 38.9232 6.47443 39.3043 6.47443C39.5671 6.47443 39.8287 6.50521 40.0891 6.56676C40.3496 6.62831 40.5875 6.73011 40.8029 6.87216C41.0183 7.01184 41.1912 7.20241 41.3214 7.44389C41.454 7.68537 41.5202 7.98722 41.5202 8.34943V12H40.2844V11.2507H40.2418C40.1637 11.4022 40.0536 11.5443 39.9116 11.6768C39.7719 11.8071 39.5955 11.9124 39.3825 11.9929C39.1718 12.071 38.9244 12.1101 38.6403 12.1101ZM38.9741 11.1655C39.2321 11.1655 39.4558 11.1146 39.6452 11.0128C39.8346 10.9086 39.9802 10.7713 40.082 10.6009C40.1862 10.4304 40.2383 10.2446 40.2383 10.0433V9.40057C40.198 9.43371 40.1294 9.46449 40.0323 9.4929C39.9376 9.52131 39.8311 9.54616 39.7127 9.56747C39.5943 9.58878 39.4772 9.60772 39.3612 9.62429C39.2451 9.64086 39.1445 9.65507 39.0593 9.6669C38.8675 9.69294 38.6959 9.73556 38.5444 9.79474C38.3929 9.85393 38.2733 9.93679 38.1857 10.0433C38.0981 10.1475 38.0543 10.2824 38.0543 10.4482C38.0543 10.6849 38.1407 10.8636 38.3136 10.9844C38.4864 11.1051 38.7066 11.1655 38.9741 11.1655Z" fill="white"/>
<path d="M9.84766 13.9886H17.084V14.6705H9.84766V13.9886Z" fill="white"/>
</svg>
