<svg width="31" height="24" viewBox="0 0 31 24" fill="none" xmlns="http://www.w3.org/2000/svg">
<g clip-path="url(#clip0_10088_137241)">
<path d="M5.59989 23.9473V22.3545C5.59989 21.7453 5.22875 21.3463 4.59164 21.3463C4.27308 21.3463 3.92669 21.4514 3.68855 21.7978C3.50298 21.5071 3.237 21.3463 2.83803 21.3463C2.57205 21.3463 2.30607 21.4267 2.09576 21.7174V21.3989H1.53906V23.9473H2.09576V22.5401C2.09576 22.0886 2.33391 21.8752 2.70504 21.8752C3.07618 21.8752 3.26174 22.1133 3.26174 22.5401V23.9473H3.81844V22.5401C3.81844 22.0886 4.08442 21.8752 4.42772 21.8752C4.79886 21.8752 4.98442 22.1133 4.98442 22.5401V23.9473H5.59989ZM13.8576 21.3989H12.9545V20.6288H12.3978V21.3989H11.8937V21.903H12.3978V23.0721C12.3978 23.6566 12.636 23.9999 13.2731 23.9999C13.5112 23.9999 13.7772 23.9195 13.9628 23.8143L13.8019 23.335C13.6411 23.4401 13.4556 23.4679 13.3226 23.4679C13.0566 23.4679 12.9514 23.3071 12.9514 23.0442V21.903H13.8545V21.3989H13.8576ZM18.5834 21.3432C18.2648 21.3432 18.0514 21.504 17.9184 21.7143V21.3958H17.3617V23.9442H17.9184V22.5092C17.9184 22.0855 18.104 21.8442 18.4504 21.8442C18.5556 21.8442 18.6885 21.8721 18.7968 21.8968L18.9576 21.3649C18.8463 21.3432 18.6885 21.3432 18.5834 21.3432ZM11.4422 21.6092C11.1762 21.4236 10.805 21.3432 10.4061 21.3432C9.76896 21.3432 9.34525 21.6618 9.34525 22.1659C9.34525 22.5896 9.6638 22.8308 10.2205 22.9082L10.4865 22.936C10.7772 22.9886 10.938 23.069 10.938 23.202C10.938 23.3875 10.7246 23.5205 10.3535 23.5205C9.98236 23.5205 9.68855 23.3875 9.50298 23.2545L9.237 23.6783C9.52772 23.8917 9.92669 23.9968 10.3257 23.9968C11.0679 23.9968 11.4947 23.6504 11.4947 23.1741C11.4947 22.7226 11.1483 22.4844 10.6195 22.404L10.3535 22.3762C10.1154 22.3484 9.92978 22.2958 9.92978 22.138C9.92978 21.9525 10.1154 21.8473 10.4092 21.8473C10.7277 21.8473 11.0463 21.9803 11.2071 22.0607L11.4422 21.6092ZM26.2535 21.3432C25.9349 21.3432 25.7215 21.504 25.5885 21.7143V21.3958H25.0318V23.9442H25.5885V22.5092C25.5885 22.0855 25.7741 21.8442 26.1205 21.8442C26.2257 21.8442 26.3586 21.8721 26.4669 21.8968L26.6277 21.371C26.5195 21.3432 26.3617 21.3432 26.2535 21.3432ZM19.1401 22.6731C19.1401 23.4432 19.6721 23.9999 20.4947 23.9999C20.8659 23.9999 21.1318 23.9195 21.3978 23.7092L21.1318 23.2576C20.9184 23.4185 20.7081 23.4958 20.4669 23.4958C20.0154 23.4958 19.6968 23.1772 19.6968 22.6731C19.6968 22.1937 20.0154 21.8752 20.4669 21.8504C20.705 21.8504 20.9184 21.9308 21.1318 22.0886L21.3978 21.637C21.1318 21.4236 20.8659 21.3463 20.4947 21.3463C19.6721 21.3432 19.1401 21.903 19.1401 22.6731ZM24.2896 22.6731V21.3989H23.7329V21.7174C23.5473 21.4793 23.2813 21.3463 22.9349 21.3463C22.2174 21.3463 21.6607 21.903 21.6607 22.6731C21.6607 23.4432 22.2174 23.9999 22.9349 23.9999C23.3061 23.9999 23.5721 23.8669 23.7329 23.6288V23.9473H24.2896V22.6731ZM22.2452 22.6731C22.2452 22.2216 22.536 21.8504 23.0154 21.8504C23.4669 21.8504 23.7855 22.1968 23.7855 22.6731C23.7855 23.1246 23.4669 23.4958 23.0154 23.4958C22.5391 23.4679 22.2452 23.1216 22.2452 22.6731ZM15.5834 21.3432C14.8411 21.3432 14.3092 21.8752 14.3092 22.67C14.3092 23.4679 14.8411 23.9968 15.6112 23.9968C15.9824 23.9968 16.3535 23.8917 16.6473 23.6504L16.3813 23.2514C16.1679 23.4123 15.9019 23.5174 15.6391 23.5174C15.2927 23.5174 14.9494 23.3566 14.869 22.9082H16.7525C16.7525 22.8277 16.7525 22.7752 16.7525 22.6947C16.7772 21.8752 16.2978 21.3432 15.5834 21.3432ZM15.5834 21.8226C15.9298 21.8226 16.1679 22.036 16.2205 22.4319H14.8937C14.9463 22.0886 15.1844 21.8226 15.5834 21.8226ZM29.4143 22.6731V20.3906H28.8576V21.7174C28.6721 21.4793 28.4061 21.3463 28.0597 21.3463C27.3422 21.3463 26.7855 21.903 26.7855 22.6731C26.7855 23.4432 27.3422 23.9999 28.0597 23.9999C28.4308 23.9999 28.6968 23.8669 28.8576 23.6288V23.9473H29.4143V22.6731ZM27.37 22.6731C27.37 22.2216 27.6607 21.8504 28.1401 21.8504C28.5916 21.8504 28.9102 22.1968 28.9102 22.6731C28.9102 23.1246 28.5916 23.4958 28.1401 23.4958C27.6607 23.4679 27.37 23.1216 27.37 22.6731ZM8.73288 22.6731V21.3989H8.17618V21.7174C7.99061 21.4793 7.72463 21.3463 7.37824 21.3463C6.66071 21.3463 6.10401 21.903 6.10401 22.6731C6.10401 23.4432 6.66071 23.9999 7.37824 23.9999C7.74937 23.9999 8.01535 23.8669 8.17618 23.6288V23.9473H8.73288V22.6731ZM6.6638 22.6731C6.6638 22.2216 6.95453 21.8504 7.43391 21.8504C7.88545 21.8504 8.20401 22.1968 8.20401 22.6731C8.20401 23.1246 7.88545 23.4958 7.43391 23.4958C6.95453 23.4679 6.6638 23.1216 6.6638 22.6731Z" fill="black"/>
<path d="M19.6207 2.04492H11.2578V17.0697H19.6207V2.04492Z" fill="#FF5A00"/>
<path d="M11.8144 9.5567C11.8144 6.50412 13.2495 3.79485 15.4515 2.04433C13.8309 0.770103 11.7866 0 9.5567 0C4.27423 0 0 4.27423 0 9.5567C0 14.8392 4.27423 19.1134 9.5567 19.1134C11.7866 19.1134 13.8309 18.3433 15.4515 17.0691C13.2464 15.3433 11.8144 12.6093 11.8144 9.5567Z" fill="#EB001B"/>
<path d="M30.9047 9.5567C30.9047 14.8392 26.6304 19.1134 21.348 19.1134C19.1181 19.1134 17.0737 18.3433 15.4531 17.0691C17.683 15.3155 19.0902 12.6093 19.0902 9.5567C19.0902 6.50412 17.6552 3.79485 15.4531 2.04433C17.0707 0.770103 19.115 0 21.3449 0C26.6304 0 30.9047 4.30206 30.9047 9.5567Z" fill="#F79E1B"/>
</g>
<defs>
<clipPath id="clip0_10088_137241">
<rect width="30.9031" height="24" fill="white"/>
</clipPath>
</defs>
</svg>
