<svg width="80" height="24" viewBox="0 0 80 24" fill="none" xmlns="http://www.w3.org/2000/svg">
<g clip-path="url(#clip0_10088_137236)">
<path d="M-0.53125 0.685212H7.01161C7.69732 0.685212 9.75446 0.456641 10.6688 3.65664C11.3545 5.71378 12.2688 8.91378 13.6402 13.7138H14.0973C15.4688 8.68521 16.6116 5.25664 17.0688 3.65664C17.983 0.456641 20.2688 0.685212 21.183 0.685212H28.2688V22.6281H20.9545V9.5995H20.4973L16.6116 22.6281H11.1259L7.24018 9.5995H6.55446V22.6281H-0.53125M31.2402 0.685212H38.5545V13.7138H39.2402L44.0402 2.97093C44.9545 0.913783 47.0116 0.685212 47.0116 0.685212H53.8688V22.6281H46.5545V9.5995H46.0973L41.2973 20.3424C40.383 22.3995 38.0973 22.6281 38.0973 22.6281H31.2402M63.6973 15.9995V22.6281H56.8402V11.1995H79.2402C78.3259 13.9424 75.1259 15.9995 71.4688 15.9995" fill="#0F754E"/>
<path d="M79.6971 9.8284C80.6114 5.71412 77.8685 0.685547 71.9257 0.685547H56.3828C56.84 5.48555 60.9542 9.8284 65.2971 9.8284" fill="url(#paint0_linear_10088_137236)"/>
</g>
<defs>
<linearGradient id="paint0_linear_10088_137236" x1="76.9542" y1="-2.28588" x2="58.6685" y2="-2.28588" gradientUnits="userSpaceOnUse">
<stop stop-color="#1F5CD7"/>
<stop offset="1" stop-color="#02AEFF"/>
</linearGradient>
<clipPath id="clip0_10088_137236">
<rect width="80" height="24" fill="white"/>
</clipPath>
</defs>
</svg>
