<svg width="120" height="20" viewBox="0 0 120 20" fill="none" xmlns="http://www.w3.org/2000/svg">
<path d="M53.6546 5.80239L56.1551 3.93359H47.7812V15.1293H56.1551V13.2589H50.1731V10.4014H55.2859V8.53262H50.1731V5.80239H53.6546Z" fill="#21A038"/>
<path d="M41.4569 8.29359H38.5559V5.80239H43.1969L45.6989 3.93359H36.1641V15.1293H41.148C43.9403 15.1293 45.553 13.8456 45.553 11.6105C45.553 9.46702 44.1033 8.29359 41.4569 8.29359ZM41.058 13.2589H38.5559V10.1624H41.058C42.5807 10.1624 43.2869 10.6761 43.2869 11.7207C43.2869 12.7653 42.5263 13.2589 41.058 13.2589Z" fill="#21A038"/>
<path d="M62.94 3.93164H58.3906V15.1273H60.7825V11.9563H62.9586C65.858 11.9563 67.6709 10.4181 67.6709 7.94395C67.6709 5.46982 65.858 3.93164 62.94 3.93164ZM62.8857 10.0875H60.7654V5.80043H62.8857C64.4269 5.80043 65.2605 6.5703 65.2605 7.94395C65.2605 9.31761 64.4269 10.0875 62.8857 10.0875Z" fill="#21A038"/>
<path d="M32.065 12.7085C31.4317 13.0577 30.7239 13.2409 29.9991 13.2409C27.8416 13.2409 26.2832 11.6825 26.2832 9.53898C26.2832 7.39546 27.8416 5.8371 29.9991 5.8371C30.7783 5.82003 31.5404 6.07613 32.1737 6.53402L33.8965 5.25194L33.7879 5.14174C32.7914 4.24304 31.4488 3.78516 29.9261 3.78516C28.2778 3.78516 26.7722 4.35324 25.6857 5.37922C24.5976 6.44244 23.9814 7.9263 24.0171 9.46603C23.9985 11.0228 24.5976 12.5253 25.6857 13.6242C26.8265 14.7061 28.3492 15.3114 29.9091 15.2742C31.6304 15.2742 33.1344 14.6688 34.1495 13.5699L32.6098 12.4151L32.065 12.7085Z" fill="#21A038"/>
<path d="M96.4369 3.95027V15.1444H98.8287V10.564H103.923V15.1444H106.316V3.95027H103.923V8.54929H98.8287V3.95027H96.4369ZM92.3221 15.1444H94.8413L90.1646 3.95027H87.7355L82.9689 15.1444H85.3793L86.3401 12.8907H91.4157L92.3221 15.1444ZM87.065 11.0219L88.9136 6.53305L90.6536 11.0219H87.065ZM111.682 10.6199H113.168L116.829 15.1273H119.91L115.016 9.33624L119.294 3.93164H116.557L113.005 8.73245H111.682V3.93164H109.289V15.1273H111.682V10.6199ZM75.0653 8.31026V5.81906H81.3189V3.95027H72.6719V15.1444H77.6574C80.4482 15.1444 82.0624 13.8623 82.0624 11.6272C82.0624 9.48369 80.6127 8.31026 77.9647 8.31026H75.0653ZM75.0653 13.2756V10.1791H77.5674C79.0885 10.1791 79.7963 10.6928 79.7963 11.7374C79.7963 12.782 79.0528 13.2942 77.5674 13.2942H75.0653V13.2756Z" fill="#21A038"/>
<path d="M16.5281 3.85938C16.9627 4.42746 17.3259 5.04988 17.6332 5.70954L9.25936 11.957L5.74219 9.72186V7.0475L9.24074 9.26397L16.5281 3.85938Z" fill="#21A038"/>
<path d="M2.17493 9.53901C2.17493 9.41018 2.17493 9.30153 2.19355 9.1727L0.0733133 9.0625C0.0733133 9.20995 0.0546875 9.37448 0.0546875 9.52038C0.0546875 12.0861 1.08842 14.4128 2.75543 16.0984L4.25947 14.5773C2.97273 13.2952 2.17493 11.518 2.17493 9.53901Z" fill="url(#paint0_linear_10088_137247)"/>
<path d="M9.24736 2.39352C9.37464 2.39352 9.48329 2.39352 9.61057 2.41215L9.71922 0.268625C9.57331 0.268625 9.41034 0.25 9.26599 0.25C6.72822 0.25 4.42638 1.2946 2.75781 2.98024L4.26185 4.50135C5.53151 3.20064 7.30717 2.39352 9.24736 2.39352Z" fill="url(#paint1_linear_10088_137247)"/>
<path d="M9.24529 16.6859C9.11802 16.6859 9.00936 16.6859 8.88209 16.6673L8.77344 18.8108C8.91934 18.8108 9.08232 18.8295 9.22667 18.8295C11.7644 18.8295 14.0678 17.7849 15.7348 16.0992L14.2308 14.5781C12.9611 15.8975 11.2026 16.6859 9.24529 16.6859Z" fill="url(#paint2_linear_10088_137247)"/>
<path d="M13.2297 3.639L15.024 2.30104C13.447 1.01896 11.4354 0.230469 9.24219 0.230469V2.37399C10.7291 2.39262 12.1059 2.8505 13.2297 3.639Z" fill="url(#paint3_linear_10088_137247)"/>
<path d="M18.4515 9.53811C18.4515 8.97002 18.3972 8.42056 18.3056 7.87109L16.3297 9.35495C16.3297 9.40928 16.3297 9.48378 16.3297 9.53811C16.3297 11.6459 15.4233 13.5333 13.9922 14.834L15.4233 16.4281C17.2734 14.7425 18.4515 12.2683 18.4515 9.53811Z" fill="#21A038"/>
<path d="M9.24519 16.6842C7.16065 16.6842 5.29341 15.7685 4.00667 14.3203L2.42969 15.7685C4.11532 17.6559 6.54444 18.8278 9.24519 18.8278V16.6842Z" fill="url(#paint4_linear_10088_137247)"/>
<path d="M4.51402 4.2425L3.08138 2.64844C1.21415 4.3527 0.0546875 6.80821 0.0546875 9.53844H2.17493C2.17493 7.44924 3.08138 5.54475 4.51402 4.2425Z" fill="url(#paint5_linear_10088_137247)"/>
<defs>
<linearGradient id="paint0_linear_10088_137247" x1="2.52933" y1="15.8378" x2="0.35176" y2="9.51482" gradientUnits="userSpaceOnUse">
<stop offset="0.1444" stop-color="#F2E913"/>
<stop offset="0.3037" stop-color="#E7E518"/>
<stop offset="0.5823" stop-color="#CADB26"/>
<stop offset="0.891" stop-color="#A3CD39"/>
</linearGradient>
<linearGradient id="paint1_linear_10088_137247" x1="3.36258" y1="2.73826" x2="8.86455" y2="0.632051" gradientUnits="userSpaceOnUse">
<stop offset="0.0592" stop-color="#0FA8E0"/>
<stop offset="0.5385" stop-color="#0099F9"/>
<stop offset="0.9234" stop-color="#0291EB"/>
</linearGradient>
<linearGradient id="paint2_linear_10088_137247" x1="8.64956" y1="17.0064" x2="15.2055" y2="15.518" gradientUnits="userSpaceOnUse">
<stop offset="0.1226" stop-color="#A3CD39"/>
<stop offset="0.2846" stop-color="#86C339"/>
<stop offset="0.8693" stop-color="#21A038"/>
</linearGradient>
<linearGradient id="paint3_linear_10088_137247" x1="8.80652" y1="1.59627" x2="14.2586" y2="3.28613" gradientUnits="userSpaceOnUse">
<stop offset="0.0566" stop-color="#0291EB"/>
<stop offset="0.79" stop-color="#0C8ACB"/>
</linearGradient>
<linearGradient id="paint4_linear_10088_137247" x1="2.96883" y1="16.1076" x2="8.82633" y2="18.3061" gradientUnits="userSpaceOnUse">
<stop offset="0.1324" stop-color="#F2E913"/>
<stop offset="0.2977" stop-color="#EBE716"/>
<stop offset="0.5306" stop-color="#D9E01F"/>
<stop offset="0.8023" stop-color="#BBD62D"/>
<stop offset="0.9829" stop-color="#A3CD39"/>
</linearGradient>
<linearGradient id="paint5_linear_10088_137247" x1="1.67978" y1="9.79746" x2="4.03362" y2="3.64649" gradientUnits="userSpaceOnUse">
<stop offset="0.0698" stop-color="#A3CD39"/>
<stop offset="0.2599" stop-color="#81C55F"/>
<stop offset="0.9216" stop-color="#0FA8E0"/>
</linearGradient>
</defs>
</svg>
