<svg width="74" height="24" viewBox="0 0 74 24" fill="none" xmlns="http://www.w3.org/2000/svg">
<g clip-path="url(#clip0_10088_137239)">
<path d="M48.1374 0.0371094C42.8943 0.0371094 38.2086 2.75511 38.2086 7.77568C38.2086 13.534 46.5186 13.9317 46.5186 16.8248C46.5186 18.043 45.123 19.1333 42.7383 19.1333C39.3551 19.1333 36.8263 17.6099 36.8263 17.6099L35.7441 22.677C35.7441 22.677 38.6573 23.9639 42.5247 23.9639C48.2571 23.9639 52.7684 21.1129 52.7684 16.0058C52.7684 9.92081 44.4237 9.53495 44.4237 6.85022C44.4237 5.89593 45.5694 4.85071 47.9467 4.85071C50.6292 4.85071 52.8172 5.95876 52.8172 5.95876L53.8764 1.06532C53.8764 1.06532 51.4955 0.0371094 48.1374 0.0371094ZM0.166203 0.406704L0.0390625 1.14515C0.0390625 1.14515 2.2448 1.54875 4.23174 2.35447C6.79008 3.27772 6.97192 3.81585 7.40287 5.48494L12.0975 23.5825H18.3909L28.0861 0.406704H21.8074L15.5776 16.164L13.0355 2.80685C12.8026 1.27821 11.6214 0.405965 10.1763 0.405965H0.166942L0.166203 0.406704ZM30.6112 0.406704L25.686 23.5825H31.6734L36.5809 0.406704H30.6112ZM64.0048 0.406704C62.5612 0.406704 61.7961 1.1799 61.2351 2.5304L52.4631 23.5825H58.7418L59.9563 20.0736H67.6054L68.3439 23.5825H73.8841L69.0513 0.406704H64.0048ZM64.8216 6.66838L66.6829 15.3649H61.6971L64.8216 6.66838Z" fill="#1434CB"/>
</g>
<defs>
<clipPath id="clip0_10088_137239">
<rect width="73.9189" height="24" fill="white"/>
</clipPath>
</defs>
</svg>
