<svg width="274" height="254" viewBox="0 0 274 254" fill="none" xmlns="http://www.w3.org/2000/svg">
<path d="M82.1 253.7C127.4 253.7 164.2 217 164.2 171.6C164.2 126.3 127.5 89.5 82.1 89.5C36.7 89.6 0 126.3 0 171.6C0 216.9 36.7 253.7 82.1 253.7Z" fill="#04E061"/>
<path d="M224.4 243.3C251.8 243.3 274 221.1 274 193.7C274 166.3 251.8 144.1 224.4 144.1C197 144.1 174.8 166.3 174.8 193.7C174.8 221.1 197 243.3 224.4 243.3Z" fill="#FF4053"/>
<path d="M97.8 78.9C114.7 78.9 128.5 65.2 128.5 48.2C128.5 31.2 114.8 17.5 97.8 17.5C80.9 17.5 67.1 31.2 67.1 48.2C67.1 65.2 80.8 78.9 97.8 78.9Z" fill="#965EEB"/>
<path d="M205.2 133.4C242 133.4 271.9 103.5 271.9 66.7C271.9 29.9 242 0 205.2 0C168.4 0 138.5 29.9 138.5 66.7C138.4 103.6 168.3 133.4 205.2 133.4Z" fill="#00AAFF"/>
</svg>
