<svg width="85" height="24" viewBox="0 0 85 24" fill="none" xmlns="http://www.w3.org/2000/svg">
<g clip-path="url(#clip0_7141_421420)">
<path fill-rule="evenodd" clip-rule="evenodd" d="M12.721 18.1743H8.98659C3.16087 18.1743 7.39325 5.80083 12.2978 5.80083H18.1982C19.1443 5.80083 20.8123 5.97513 21.6339 3.63486L22.9036 0H14.8123C10.4306 0 7.01978 1.54357 4.55507 4.13278C0.297802 8.5643 -1.14618 15.4855 -0.125431 18.7967C0.845523 21.8589 3.48453 23.8755 7.61729 23.9253L10.8289 23.9502H14.7874L15.7584 21.0374C16.4804 18.971 14.8621 18.1743 12.721 18.1743ZM58.1817 13.0456L59.4014 9.08715H46.3808C44.2148 9.08715 43.2439 9.68466 42.8704 10.9294L41.6505 14.888H54.6713C56.8372 14.888 57.8082 14.2905 58.1817 13.0456ZM39.7086 20.0166L38.4887 23.9751H51.5094C53.6505 23.9751 54.6464 23.3776 55.0198 22.1328L56.2398 18.1743H43.219C41.0779 18.1743 40.1069 18.7718 39.7086 20.0166ZM61.2189 3.98341L62.4391 0.0248959H49.4181C47.2522 0.0248959 46.2812 0.622406 45.9078 1.86722L44.6879 5.82573H57.7086C59.85 5.82573 60.8205 5.22822 61.2189 3.98341ZM41.551 4.78009C41.0032 1.09544 39.0364 0.0248959 34.2563 0.0248959H25.5427L20.4638 14.888H23.6754C25.5924 14.888 26.5634 14.9129 27.5841 12.1743L29.7003 5.80083H32.9368C35.7003 5.80083 35.0779 9.26144 33.6837 12.6224C32.4389 15.585 30.2729 18.1992 27.6588 18.1992H22.2563C20.0903 18.1992 19.0945 18.7967 18.6961 20.0415L17.3517 24H21.3103L25.1941 23.9751C28.6298 23.9502 31.443 23.7012 34.7293 20.7386C38.2148 17.5768 42.248 9.46057 41.551 4.78009ZM85.3188 0H77.7753L70.6797 7.54357C69.8578 8.41493 69.0115 9.28628 68.1897 10.3071H68.115L71.6503 0H65.5013L57.2107 23.9751H63.3601L65.9989 16.4316L68.7374 14.1162L70.9037 20.9378C71.5756 23.0539 72.2732 23.9751 73.767 23.9751H78.4723L73.6422 10.5809L85.3188 0Z" fill="#00B33C"/>
</g>
<defs>
<clipPath id="clip0_7141_421420">
<rect width="84.8781" height="24" fill="white"/>
</clipPath>
</defs>
</svg>
