<svg width="165" height="24" viewBox="0 0 165 24" fill="none" xmlns="http://www.w3.org/2000/svg">
<g clip-path="url(#clip0_7141_421419)">
<path d="M13.6499 1.44922V22.6461H9.96344V4.49487H3.69359V22.6461H0V1.44922H13.6499Z" fill="#1928DC"/>
<path d="M18.3023 21.809C17.195 20.8366 16.3917 19.5887 15.9822 18.2046C15.3823 16.2664 15.1038 14.25 15.1567 12.2291C15.1055 10.1568 15.3839 8.0891 15.9822 6.09694C16.3886 4.67236 17.1903 3.37972 18.3023 2.35632C19.277 1.5579 20.5175 1.11914 21.8002 1.11914C23.0829 1.11914 24.3235 1.5579 25.2981 2.35632C26.4088 3.36755 27.2066 4.65245 27.6039 6.06969C28.1983 8.06264 28.4766 10.1298 28.4295 12.2019C28.483 14.234 28.2045 16.2617 27.6039 18.2114C27.2057 19.5951 26.4062 20.8424 25.2981 21.809C24.3073 22.5797 23.0697 23.0004 21.7931 23.0004C20.5165 23.0004 19.2788 22.5797 18.2881 21.809H18.3023ZM19.2133 16.4535C19.3585 17.3619 19.7135 18.2278 20.2523 18.9882C20.4216 19.2348 20.6502 19.439 20.9189 19.5836C21.1876 19.7282 21.4886 19.8091 21.7967 19.8194C22.7076 19.8194 23.4264 19.1858 23.9317 17.9048C24.556 16.0747 24.8355 14.1529 24.7572 12.2291C24.7795 10.7546 24.6604 9.28126 24.4014 7.8276C24.244 6.88208 23.8803 5.97899 23.3338 5.17712C23.1707 4.91771 22.943 4.70103 22.671 4.54646C22.399 4.39189 22.0913 4.30425 21.7753 4.29136C21.465 4.30797 21.1637 4.39747 20.8981 4.55194C20.6326 4.70642 20.4107 4.92114 20.2523 5.17712C19.7131 5.98734 19.3591 6.89752 19.2133 7.84805C18.9425 9.29811 18.8185 10.7699 18.8432 12.2428C18.8192 13.6547 18.9432 15.0653 19.2133 16.4535Z" fill="#1928DC"/>
<path d="M38.5595 1.44922V9.57776H36.6095C35.8983 9.60634 35.1898 9.47812 34.5385 9.20302C34.0237 8.94376 33.6299 8.50827 33.4354 7.98339C33.1734 7.25665 33.0551 6.48955 33.0867 5.72131V1.44922H29.4002V5.72131C29.2893 7.56994 29.864 9.39669 31.0229 10.8792C32.1046 12.1283 33.7201 12.7529 35.8694 12.7529H38.5595V22.6461H42.2531V1.44922H38.5595Z" fill="#1928DC"/>
<path d="M56.1425 4.49487H51.8013V22.6461H48.129V4.49487H43.7949V1.44922H56.1425V4.49487Z" fill="#1928DC"/>
<path d="M61.3894 1.44988H64.3429C65.5566 1.40414 66.7579 1.70282 67.7949 2.30839C68.7076 2.89595 69.416 3.73108 69.8302 4.70675C70.3404 5.91554 70.6616 7.18973 70.7835 8.48825L72.5061 22.6468H68.8196L67.6164 12.7535H61.3894V22.6468H57.7031V1.44988H61.3894ZM61.3894 9.70788H67.2539L67.0828 8.48825C67.0182 7.70589 66.8508 6.93449 66.5849 6.19211C66.3966 5.69333 66.0317 5.27371 65.5529 5.00655C64.9319 4.72443 64.2469 4.59561 63.5601 4.6318H61.3894V9.70788Z" fill="#1928DC"/>
<path d="M87.7948 1.44906C89.0249 1.42083 90.2385 1.72548 91.2963 2.32801C92.3333 2.95993 93.1407 3.88327 93.609 4.97166C94.1997 6.35623 94.481 7.84406 94.4342 9.33914C94.4687 10.758 94.2047 12.1691 93.6588 13.4886C93.2514 14.4947 92.5997 15.3938 91.7585 16.1118C91.1757 16.6342 90.4206 16.9451 89.6237 16.9907C89.2133 17.016 88.8016 16.954 88.4194 16.8091C88.0366 16.6641 87.692 16.44 87.4108 16.1527V22.646H83.7246V1.44906H87.7948ZM87.6311 12.4529C87.7246 12.8312 87.9123 13.182 88.1794 13.475C88.2668 13.5759 88.3751 13.6582 88.4976 13.7169C88.62 13.7755 88.7542 13.8091 88.8908 13.8157C89.2126 13.7984 89.5154 13.6644 89.7376 13.4409C90.0773 13.0949 90.3222 12.6735 90.449 12.2145C90.6545 11.5095 90.748 10.7792 90.7265 10.0477C90.7265 8.06731 90.4754 6.66821 89.9726 5.85061C89.7603 5.47363 89.4428 5.16021 89.0563 4.94497C88.6693 4.72974 88.228 4.62108 87.7806 4.63099H87.4108V10.7632C87.404 11.3334 87.4785 11.9018 87.6311 12.4529Z" fill="#1928DC"/>
<path d="M98.5396 21.8087C97.43 20.8381 96.6263 19.5896 96.2194 18.2043C95.6169 16.2665 95.3357 14.2501 95.3868 12.2288C95.3369 10.1561 95.6175 8.08825 96.2194 6.09662C96.6219 4.67054 97.4245 3.37702 98.5396 2.35598C99.4991 1.53958 100.743 1.09712 102.027 1.11592C103.315 1.0954 104.566 1.53504 105.535 2.34917C106.649 3.36697 107.45 4.65875 107.848 6.08299C108.44 8.07635 108.716 10.1434 108.667 12.2152C108.718 14.2373 108.444 16.2549 107.856 18.1975C107.454 19.5799 106.655 20.8265 105.549 21.795C104.553 22.592 103.289 23.0157 101.991 22.9874C100.731 22.9997 99.5071 22.5818 98.5396 21.8087ZM99.4431 16.4532C99.5951 17.3598 99.9496 18.2244 100.483 18.9878C100.652 19.2341 100.881 19.438 101.149 19.5825C101.418 19.7271 101.719 19.8082 102.027 19.8191C102.945 19.8191 103.656 19.1854 104.162 17.9045C104.774 16.0723 105.041 14.1505 104.952 12.2288C104.975 10.7539 104.854 9.28024 104.589 7.82723C104.45 6.88766 104.111 5.9854 103.592 5.17679C103.44 4.90954 103.215 4.68652 102.941 4.53117C102.667 4.37581 102.355 4.29382 102.037 4.29382C101.719 4.29382 101.407 4.37581 101.133 4.53117C100.86 4.68652 100.635 4.90954 100.483 5.17679C99.9484 5.9895 99.5945 6.89862 99.4431 7.84767C99.1791 9.29851 99.0572 10.7698 99.08 12.2424C99.0578 13.654 99.1797 15.0642 99.4431 16.4532Z" fill="#1928DC"/>
<path d="M111.221 6.24664C112.129 4.66048 113.546 3.39658 115.263 2.64227C117.267 1.8039 119.438 1.39687 121.625 1.4499V4.63183C119.006 4.63183 116.999 5.26776 115.604 6.53959C114.181 7.80694 113.512 9.70794 113.512 12.2289C113.512 14.7499 114.224 16.4738 115.597 17.6798C116.971 18.8858 118.992 19.4854 121.625 19.4854V22.6673C117.86 22.6673 114.942 21.7952 112.893 20.0509C110.844 18.3066 109.819 15.7107 109.819 12.2494C109.741 10.1665 110.224 8.09937 111.221 6.24664Z" fill="#1928DC"/>
<path d="M123.64 6.24664C124.547 4.66048 125.965 3.39658 127.682 2.64227C129.685 1.8039 131.857 1.39687 134.043 1.4499V4.63183C131.424 4.63183 129.418 5.26776 128.023 6.53959C126.6 7.80694 125.931 9.70794 125.931 12.2289C125.931 14.7499 126.642 16.4738 128.016 17.6798C129.389 18.8858 131.41 19.4854 134.043 19.4854V22.6673C130.279 22.6673 127.361 21.7952 125.312 20.0509C123.262 18.3066 122.259 15.6902 122.259 12.2289C122.178 10.1547 122.653 8.09519 123.64 6.24664Z" fill="#1928DC"/>
<path d="M139.466 1.44969V9.01952L145.743 3.95707L149.415 1V22.667H145.743V8.22237L139.473 13.2848V22.6466H135.779V1.44969H139.466Z" fill="#1928DC"/>
<path d="M154.846 1.44969V9.01952L161.123 3.95707L164.795 1V22.667H161.108V8.22237L154.831 13.2848V22.6466H151.145V1.44969H154.846Z" fill="#1928DC"/>
</g>
<defs>
<clipPath id="clip0_7141_421419">
<rect width="164.795" height="24" fill="white"/>
</clipPath>
</defs>
</svg>
