<svg width="25" height="25" fill="none" xmlns="http://www.w3.org/2000/svg"><g clip-path="url(#clip0_401_279)"><path d="M17.702 8.426l-.267-.88a1.912 1.912 0 00-3.622 0l-.268.88a4.944 4.944 0 00-.137 2.291 2.156 2.156 0 001.11 1.502l-.3 6.698c-.04.373.081.747.333 1.025a1.455 1.455 0 002.149 0c.246-.27.367-.633.333-.997l-.301-6.726a2.155 2.155 0 001.108-1.502 4.946 4.946 0 00-.138-2.291zm-.683 2.146c-.09.463-.42.842-.864.996a.416.416 0 00-.27.409l.317 7.033a.482.482 0 01-.125.378.644.644 0 01-.906 0 .5.5 0 01-.123-.405l.315-7.006a.417.417 0 00-.27-.41 1.321 1.321 0 01-.865-.995 4.108 4.108 0 01.115-1.902l.268-.88a1.08 1.08 0 012.026 0l.268.88a4.11 4.11 0 01.114 1.902zM11.25 6.25a.417.417 0 00-.418.417v3.577l-1.127 1.128a.417.417 0 00-.122.316l.364 7.291a.568.568 0 01-.157.425.587.587 0 01-.83.003l-.004-.003a.568.568 0 01-.157-.425l.367-7.291a.417.417 0 00-.122-.316l-1.128-1.128V6.667a.417.417 0 00-.833 0v3.75c0 .11.043.216.122.294l1.119 1.12-.356 7.108a1.407 1.407 0 102.812 0l-.355-7.108 1.119-1.12a.417.417 0 00.122-.294v-3.75a.417.417 0 00-.417-.417z" fill="#FF9401"/><path d="M8.75 6.25a.417.417 0 00-.417.417V10a.417.417 0 00.833 0V6.667a.417.417 0 00-.417-.417zm1.25 0a.417.417 0 00-.417.417V10a.417.417 0 00.833 0V6.667a.417.417 0 00-.417-.417z" fill="#FF9401"/><path d="M12.5 0C5.596 0 0 5.596 0 12.5S5.596 25 12.5 25 25 19.404 25 12.5C24.992 5.6 19.4.008 12.5 0zm0 24.167C6.057 24.167.833 18.943.833 12.5S6.057.833 12.5.833 24.167 6.057 24.167 12.5c-.008 6.44-5.227 11.66-11.667 11.667z" fill="#2E2E2E"/><path d="M13.852 20.322a.417.417 0 00-.47-.373 7.657 7.657 0 01-1.765 0 .417.417 0 10-.097.828c.65.076 1.308.076 1.958 0a.417.417 0 00.374-.456zM18.875 7.13a.417.417 0 00-.587-.05h-.002a.417.417 0 00-.05.588 7.5 7.5 0 01-.442 10.145.417.417 0 10.588.59 8.333 8.333 0 00.493-11.272zM14.467 4.4a8.407 8.407 0 00-4.905.301.417.417 0 00.292.78 7.57 7.57 0 014.417-.271.417.417 0 10.196-.81zM7.186 17.791A7.452 7.452 0 015 12.5a7.445 7.445 0 011.434-4.412.417.417 0 10-.673-.49 8.333 8.333 0 00.836 10.783.417.417 0 00.59-.59z" fill="#2E2E2E"/></g><defs><clipPath id="clip0_401_279"><path fill="#fff" d="M0 0h25v25H0z"/></clipPath></defs></svg>