<svg xmlns="http://www.w3.org/2000/svg" xmlns:xlink="http://www.w3.org/1999/xlink"><symbol viewBox="0 0 32 32" id="arrow" xmlns="http://www.w3.org/2000/svg"><path d="M22.104 7.454l-1.39 1.39 5.897 5.896H.983v1.966H26.61l-5.896 5.896 1.39 1.39 8.27-8.269-8.27-8.269z"/></symbol><symbol viewBox="0 0 20 19" id="cart" xmlns="http://www.w3.org/2000/svg"><path d="M15.133 4.867V1.933c0-1.466-1.466-1.466-1.466-1.466h-7.26s-1.62.003-1.54 1.466v2.934H1.933s-1.466 0-1.466 1.466V16.6c0 1.467 1.466 1.467 1.466 1.467h16.134s1.466 0 1.466-1.467V6.333c0-1.466-1.466-1.466-1.466-1.466h-2.934zm-8.066-2.2h5.866v2.2H7.067v-2.2z"/></symbol><symbol viewBox="0 0 19 14" id="email" xmlns="http://www.w3.org/2000/svg"><path d="M14.727 11.722l.05.047.052-.047 2.904-2.676 1.156 1.065-4.111 3.787-2.845-2.62 1.156-1.065 1.638 1.509zm-13.038-.758h8.37v1.405h-8.37c-.894 0-1.614-.672-1.614-1.48V1.556C.075.747.795.075 1.689.075H15.2c.893 0 1.614.672 1.614 1.48v5.37h-1.539V2.981l-.112.065-6.719 3.867-6.718-3.867-.112-.065v7.983h.075zM15.237 1.62l.244-.14H1.409l.242.14 6.756 3.888.037.022.038-.022 6.755-3.888z" stroke-width=".15"/></symbol><symbol viewBox="0 0 9 16" id="facebook" xmlns="http://www.w3.org/2000/svg"><path d="M6 5.977h3v2.988H6v6.973H3V8.965H0V5.977h3v-1.25c0-1.185.374-2.681 1.118-3.499C4.862.408 5.791 0 6.904 0H9v2.988H6.9c-.498 0-.9.4-.9.896v2.093z"/></symbol><symbol viewBox="0 0 17 17" id="globe" xmlns="http://www.w3.org/2000/svg"><g clip-path="url(#ea)"><path fill-rule="evenodd" clip-rule="evenodd" d="M1.082 7.969h2.645c.032-.932.147-1.826.332-2.657h-2.28a7.393 7.393 0 00-.697 2.657zM2.396 4.25h1.95a9.846 9.846 0 01.68-1.635c.183-.348.396-.68.634-.992A7.463 7.463 0 002.396 4.25zM8.5 0a8.5 8.5 0 100 17 8.5 8.5 0 000-17zm-.531 1.144c-.712.217-1.419.872-2.005 1.971-.184.344-.35.725-.497 1.135h2.502V1.144zm0 4.168h-2.82a13.373 13.373 0 00-.358 2.657h3.178V5.312zM9.03 7.97V5.312h2.82c.198.813.324 1.709.358 2.657H9.031zM7.97 9.03H4.792c.03.895.15 1.785.358 2.656h2.819V9.031zm1.062 2.656V9.031h3.177c-.03.895-.15 1.785-.358 2.656h-2.82zM7.97 12.75H5.467c.146.41.313.79.497 1.135.586 1.1 1.294 1.753 2.005 1.97V12.75zm-2.31 2.627a7.11 7.11 0 01-.633-.992 9.844 9.844 0 01-.68-1.635h-1.95a7.463 7.463 0 003.264 2.627zm-3.88-3.69h2.28a14.504 14.504 0 01-.332-2.656H1.082a7.33 7.33 0 00.697 2.656zm9.561 3.69a7.463 7.463 0 003.264-2.627h-1.949a9.86 9.86 0 01-.68 1.635 7.116 7.116 0 01-.635.992zm.193-2.627H9.031v3.106c.712-.217 1.419-.872 2.005-1.971.193-.366.36-.745.497-1.135zm1.408-1.063h2.28a7.36 7.36 0 00.697-2.656h-2.645c-.029.894-.14 1.783-.332 2.656zm.332-3.718h2.645a7.397 7.397 0 00-.697-2.657h-2.28c.185.831.3 1.725.332 2.657zm-.619-3.719a9.868 9.868 0 00-.68-1.635 7.118 7.118 0 00-.634-.992 7.463 7.463 0 013.264 2.627h-1.949zm-1.12 0H9.03V1.144c.712.217 1.419.872 2.005 1.971.184.344.35.725.497 1.135z"/></g><defs><clipPath id="ea"><path d="M0 0h17v17H0z"/></clipPath></defs></symbol><symbol viewBox="0 0 16 16" id="insta" xmlns="http://www.w3.org/2000/svg"><path d="M7.998 3.88a4.091 4.091 0 00-4.105 4.09 4.091 4.091 0 004.105 4.089 4.091 4.091 0 004.104-4.09A4.091 4.091 0 007.998 3.88zm0 6.746A2.668 2.668 0 015.33 7.97a2.668 2.668 0 015.336 0 2.668 2.668 0 01-2.668 2.657zM12.27 2.76a.956.956 0 100 1.91.954.954 0 100-1.91zm3.728 5.209c0-1.1.01-2.191-.052-3.29-.062-1.275-.354-2.408-1.29-3.34-.94-.936-2.074-1.225-3.355-1.287C10.197-.009 9.102.001 8 .001 6.895 0 5.8-.01 4.698.052 3.417.114 2.28.405 1.343 1.338.405 2.273.115 3.404.053 4.68-.01 5.78 0 6.87 0 7.969c0 1.098-.01 2.19.052 3.29.062 1.275.354 2.407 1.29 3.34.94.935 2.074 1.225 3.355 1.286 1.104.062 2.2.052 3.302.052 1.105 0 2.2.01 3.302-.052 1.28-.061 2.418-.352 3.354-1.285.939-.935 1.229-2.066 1.291-3.342.064-1.098.052-2.189.052-3.29zm-1.761 4.7a2.533 2.533 0 01-.604.914 2.563 2.563 0 01-.917.602c-1.053.416-3.552.323-4.72.323-1.166 0-3.668.094-4.72-.321a2.545 2.545 0 01-.917-.602 2.55 2.55 0 01-.604-.913c-.417-1.05-.322-3.54-.322-4.703 0-1.162-.095-3.654.322-4.703a2.53 2.53 0 01.604-.913 2.57 2.57 0 01.917-.602c1.052-.415 3.554-.321 4.72-.321 1.168 0 3.67-.094 4.722.321.364.145.636.32.917.602.282.281.458.55.604.913.416 1.049.322 3.54.322 4.703 0 1.162.094 3.652-.324 4.7z"/></symbol><symbol viewBox="0 0 11 11" id="like" xmlns="http://www.w3.org/2000/svg"><path d="M5.078 3.568l.422.663.422-.663a2.196 2.196 0 011.87-1.006 2.258 2.258 0 012.25 2.25c0 .538-.25 1.121-.691 1.724-.439.598-1.034 1.17-1.647 1.67a17.787 17.787 0 01-2.203 1.53 18.024 18.024 0 01-2.205-1.537c-.613-.503-1.208-1.076-1.647-1.673-.443-.602-.69-1.183-.69-1.713a2.258 2.258 0 012.25-2.25c.792 0 1.48.394 1.87 1.005z"/></symbol><symbol viewBox="0 0 20 17" id="menu" xmlns="http://www.w3.org/2000/svg"><rect width="20" height="3" rx="1.5"/><rect x="4" y="7" width="16" height="3" rx="1.5"/><rect y="14" width="20" height="3" rx="1.5"/></symbol><symbol viewBox="0 0 19 19" id="search" xmlns="http://www.w3.org/2000/svg"><path d="M8 16a7.952 7.952 0 004.897-1.688l4.396 4.396.707-.707.707-.707-4.396-4.396A7.952 7.952 0 0016 8c0-4.411-3.589-8-8-8S0 3.589 0 8s3.589 8 8 8zM8 2c3.309 0 6 2.691 6 6s-2.691 6-6 6-6-2.691-6-6 2.691-6 6-6z"/></symbol><symbol viewBox="0 0 11 10" id="star" xmlns="http://www.w3.org/2000/svg"><path d="M5.5 0l1.235 3.8h3.996L7.498 6.15l1.235 3.8L5.5 7.6 2.267 9.95l1.235-3.8L.269 3.8h3.996L5.5 0z"/></symbol><symbol viewBox="0 0 20 16" id="twitter" xmlns="http://www.w3.org/2000/svg"><path d="M17.633 3.963c.013.174.013.347.013.52 0 5.305-4.053 11.417-11.46 11.417-2.282 0-4.402-.659-6.186-1.802.324.037.636.05.973.05a8.09 8.09 0 005.001-1.715 4.046 4.046 0 01-2.33-.79 4.021 4.021 0 01-1.437-1.992 4.333 4.333 0 001.822-.074 4.03 4.03 0 01-2.321-1.394 4.002 4.002 0 01-.909-2.544v-.05a4.09 4.09 0 001.82.51A4.012 4.012 0 01.823 2.756c0-.745.199-1.428.548-2.024A11.449 11.449 0 005.076 3.71a11.476 11.476 0 004.601 1.22 4.542 4.542 0 01-.1-.919 3.997 3.997 0 011.18-2.837A4.027 4.027 0 0113.604 0c1.16 0 2.207.484 2.943 1.267a7.976 7.976 0 002.556-.97c-.3.928-.93 1.714-1.771 2.212.8-.09 1.581-.3 2.319-.621a8.628 8.628 0 01-2.019 2.075z"/></symbol></svg>